<?xml version="1.0" encoding="utf-8"?>
<!-- Generator: Adobe Illustrator 16.0.0, SVG Export Plug-In . SVG Version: 6.00 Build 0)  -->
<!DOCTYPE svg PUBLIC "-//W3C//DTD SVG 1.0//EN" "http://www.w3.org/TR/2001/REC-SVG-20010904/DTD/svg10.dtd">
<svg version="1.0" id="Layer_1" xmlns="http://www.w3.org/2000/svg" xmlns:xlink="http://www.w3.org/1999/xlink" x="0px" y="0px"
	 width="198.43px" height="198.43px" viewBox="0 0 198.43 198.43" enable-background="new 0 0 198.43 198.43" xml:space="preserve">
<g>
	<path fill-rule="evenodd" clip-rule="evenodd" fill="#FFFFFF" d="M99.215,53.814c17.832,0,32.287,14.405,32.287,32.177
		c0,0.268-0.004,0.535-0.01,0.801c0.01,0.331,0.42,14.208-10.373,25.569c-5.6,5.895-6.514,8.638-6.375,11.104
		c0.121,2.116,0.959,4.029,0.959,7.555c0,7.635,0,12.598,0,12.598s0.072,1.003-1.408,1.003h-13.664h-0.012h-0.031h-0.004h-0.049
		h-0.072h-0.094h-0.092h-0.02h-0.129h-0.146H99.82h-0.121H99.64h-0.195h-0.018h-0.192h-0.067h-0.156h-0.09h-0.147h-0.085h-0.165
		h-0.052H98.27h-0.009h-0.178h-0.096h-0.073h-0.152h-0.06h-0.074h-0.115h-0.096h-0.01h-0.066h-0.055h-0.033h-0.012H84.134
		c-1.479,0-1.408-1.003-1.408-1.003s0-4.963,0-12.598c0-3.593,0.879-5.511,0.965-7.675c0.096-2.436-0.872-5.185-6.38-10.983
		c-10.924-11.499-10.373-25.577-10.373-25.577l0.001,0.001c-0.007-0.265-0.011-0.529-0.011-0.794
		C66.928,68.219,81.384,53.814,99.215,53.814z"/>
	<path fill="none" stroke="#2B2A29" stroke-width="0.5102" stroke-miterlimit="22.9256" d="M99.215,53.814
		c17.832,0,32.287,14.405,32.287,32.177c0,0.268-0.004,0.535-0.01,0.801c0.01,0.331,0.42,14.208-10.373,25.569
		c-5.6,5.895-6.514,8.638-6.375,11.104c0.121,2.116,0.959,4.029,0.959,7.555c0,7.635,0,12.598,0,12.598s0.072,1.003-1.408,1.003
		h-13.664h-0.012h-0.031h-0.004h-0.049h-0.072h-0.094h-0.092h-0.02h-0.129h-0.146H99.82h-0.121H99.64h-0.195h-0.018h-0.192h-0.067
		h-0.156h-0.09h-0.147h-0.085h-0.165h-0.052H98.27h-0.009h-0.178h-0.096h-0.073h-0.152h-0.06h-0.074h-0.115h-0.096h-0.01h-0.066
		h-0.055h-0.033h-0.012H84.134c-1.479,0-1.408-1.003-1.408-1.003s0-4.963,0-12.598c0-3.593,0.879-5.511,0.965-7.675
		c0.096-2.436-0.872-5.185-6.38-10.983c-10.924-11.499-10.373-25.577-10.373-25.577l0.001,0.001
		c-0.007-0.265-0.011-0.529-0.011-0.794C66.928,68.219,81.384,53.814,99.215,53.814z"/>
	
		<line fill="none" stroke="#2B2A29" stroke-width="0.5102" stroke-miterlimit="22.9256" x1="73.84" y1="66.093" x2="124.672" y2="66.093"/>
	
		<line fill="none" stroke="#2B2A29" stroke-width="0.5102" stroke-miterlimit="22.9256" x1="68.395" y1="96.633" x2="130.111" y2="96.633"/>
	
		<line fill="none" stroke="#2B2A29" stroke-width="0.5102" stroke-miterlimit="22.9256" x1="83.249" y1="126.275" x2="115.18" y2="126.275"/>
	<path fill="none" stroke="#2B2A29" stroke-width="0.5102" stroke-miterlimit="22.9256" d="M99.215,53.814
		c0,0-7.277-1.184-6.044,42.639 M96.139,126.275c0,0,0.929-5.018-0.662-10.665c-1.591-5.646-2.307-19.167-2.307-19.167"/>
	<path fill="none" stroke="#2B2A29" stroke-width="0.5102" stroke-miterlimit="22.9256" d="M99.215,53.814
		c0,0-21.096,1.128-17.119,42.803"/>
	<path fill="none" stroke="#2B2A29" stroke-width="0.5102" stroke-miterlimit="22.9256" d="M90.387,126.268
		c0,0,1.551-5.766-2.545-12.486s-5.746-17.165-5.746-17.165"/>
	<path fill="none" stroke="#2B2A29" stroke-width="0.5102" stroke-miterlimit="22.9256" d="M98.924,53.843
		c0,0-13.202,0.238-20.997,12.726c-7.794,12.486-5.726,26.324-5.01,30.778c0.716,4.455,4.692,12.01,10.815,19.645
		c2.847,3.549,2.797,6.335,2.125,9.283"/>
	<path fill="none" stroke="#2B2A29" stroke-width="0.5102" stroke-miterlimit="22.9256" d="M99.215,53.814
		c0,0,7.277-1.184,6.044,42.639 M102.291,126.275c0,0-0.928-5.018,0.662-10.665c1.59-5.646,2.307-19.167,2.307-19.167"/>
	<path fill="none" stroke="#2B2A29" stroke-width="0.5102" stroke-miterlimit="22.9256" d="M99.215,53.814
		c0,0,21.095,1.128,17.119,42.803"/>
	<path fill="none" stroke="#2B2A29" stroke-width="0.5102" stroke-miterlimit="22.9256" d="M108.043,126.268
		c0,0-1.551-5.766,2.545-12.486s5.746-17.165,5.746-17.165"/>
	<path fill="none" stroke="#2B2A29" stroke-width="0.5102" stroke-miterlimit="22.9256" d="M99.506,53.843
		c0,0,13.203,0.238,20.996,12.726c7.795,12.486,5.727,26.324,5.012,30.778c-0.717,4.455-4.693,12.01-10.816,19.645
		c-2.848,3.549-2.797,6.335-2.125,9.283"/>
</g>
</svg>
