<?xml version="1.0" encoding="utf-8"?>
<!-- Generator: Adobe Illustrator 16.0.0, SVG Export Plug-In . SVG Version: 6.00 Build 0)  -->
<!DOCTYPE svg PUBLIC "-//W3C//DTD SVG 1.0//EN" "http://www.w3.org/TR/2001/REC-SVG-20010904/DTD/svg10.dtd">
<svg version="1.0" id="Layer_1" xmlns="http://www.w3.org/2000/svg" xmlns:xlink="http://www.w3.org/1999/xlink" x="0px" y="0px"
	 width="198.43px" height="198.43px" viewBox="0 0 198.43 198.43" enable-background="new 0 0 198.43 198.43" xml:space="preserve">
<g>
	<path fill-rule="evenodd" clip-rule="evenodd" fill="#FFFFFF" d="M99.215,53.458c19.507,0,35.322,15.814,35.322,35.322
		c0,13.829-8.973,30.627-19.088,39.504h0.066v16.686h-32.7v-16.686h0.002c-19.123-19.588-18.893-37.966-18.893-37.966h0.003
		c-0.022-0.511-0.035-1.022-0.035-1.538C63.893,69.273,79.707,53.458,99.215,53.458z"/>
	<path fill="none" stroke="#2B2A29" stroke-width="0.5102" stroke-miterlimit="22.9256" d="M99.215,53.458
		c19.507,0,35.322,15.814,35.322,35.322c0,13.829-8.973,30.627-19.088,39.504h0.066v16.686h-32.7v-16.686h0.002
		c-19.123-19.588-18.893-37.966-18.893-37.966h0.003c-0.022-0.511-0.035-1.022-0.035-1.538
		C63.893,69.273,79.707,53.458,99.215,53.458z"/>
	
		<line fill="none" stroke="#2B2A29" stroke-width="0.5102" stroke-miterlimit="22.9256" x1="82.818" y1="128.285" x2="115.449" y2="128.285"/>
	<path fill="none" stroke="#2B2A29" stroke-width="0.5102" stroke-miterlimit="22.9256" d="M99.215,53.458
		c0,0,15.962,6.195,3.814,74.827"/>
	<path fill="none" stroke="#2B2A29" stroke-width="0.5102" stroke-miterlimit="22.9256" d="M99.369,53.458
		c0,0,48.059,10.854,11.616,74.829"/>
	<path fill="none" stroke="#2B2A29" stroke-width="0.5102" stroke-miterlimit="22.9256" d="M99.215,53.458
		c0,0-15.963,6.195-3.815,74.827"/>
	<path fill="none" stroke="#2B2A29" stroke-width="0.5102" stroke-miterlimit="22.9256" d="M99.061,53.458
		c0,0-48.059,10.854-11.616,74.829"/>
	
		<line fill="none" stroke="#2B2A29" stroke-width="0.5102" stroke-miterlimit="22.9256" x1="66.963" y1="74.354" x2="131.467" y2="74.354"/>
	
		<line fill="none" stroke="#2B2A29" stroke-width="0.5102" stroke-miterlimit="22.9256" x1="66.3" y1="102.254" x2="132.238" y2="102.254"/>
</g>
</svg>
