<?xml version="1.0" encoding="utf-8"?>
<!-- Generator: Adobe Illustrator 16.0.0, SVG Export Plug-In . SVG Version: 6.00 Build 0)  -->
<!DOCTYPE svg PUBLIC "-//W3C//DTD SVG 1.0//EN" "http://www.w3.org/TR/2001/REC-SVG-20010904/DTD/svg10.dtd">
<svg version="1.0" id="Layer_1" xmlns="http://www.w3.org/2000/svg" xmlns:xlink="http://www.w3.org/1999/xlink" x="0px" y="0px"
	 width="198.43px" height="198.43px" viewBox="0 0 198.43 198.43" enable-background="new 0 0 198.43 198.43" xml:space="preserve">
<g>
	<path fill-rule="evenodd" clip-rule="evenodd" fill="#FFFFFF" d="M83.757,129.368l30.813,0.046
		c13.656-5.935,23.207-19.544,23.207-35.384c0-21.297-17.264-38.562-38.562-38.562c-21.297,0-38.562,17.265-38.562,38.562
		C60.653,109.83,70.156,123.41,83.757,129.368z"/>
	<path fill="none" stroke="#2B2A29" stroke-width="0.5102" stroke-miterlimit="22.9256" d="M83.757,129.368l30.813,0.046
		c13.656-5.935,23.207-19.544,23.207-35.384c0-21.297-17.264-38.562-38.562-38.562c-21.297,0-38.562,17.265-38.562,38.562
		C60.653,109.83,70.156,123.41,83.757,129.368z"/>
	<path fill="none" stroke="#2B2A29" stroke-width="0.5102" stroke-miterlimit="22.9256" d="M85.928,129.462
		c-11.957-5.908-20.329-19.549-20.329-35.432c0-21.297,15.051-38.562,33.616-38.562c18.566,0,33.617,17.265,33.617,38.562
		c0,15.888-8.377,29.532-20.341,35.438"/>
	<path fill="none" stroke="#2B2A29" stroke-width="0.5102" stroke-miterlimit="22.9256" d="M90.07,129.437
		c-8.179-5.922-13.901-19.546-13.901-35.406c0-21.297,10.318-38.562,23.046-38.562c12.729,0,23.047,17.265,23.047,38.562
		c0,15.815-5.691,29.407-13.833,35.355"/>
	<path fill="none" stroke="#2B2A29" stroke-width="0.5102" stroke-miterlimit="22.9256" d="M94.863,129.401
		c-3.86-5.941-6.559-19.543-6.559-35.371c0-21.297,4.885-38.562,10.91-38.562s10.91,17.265,10.91,38.562
		c0,15.906-2.725,29.563-6.614,35.457"/>
	
		<line fill="none" stroke="#2B2A29" stroke-width="0.5102" stroke-miterlimit="22.9256" x1="63.015" y1="107.347" x2="135.424" y2="107.347"/>
	
		<line fill="none" stroke="#2B2A29" stroke-width="0.5102" stroke-miterlimit="22.9256" x1="63.059" y1="80.713" x2="135.415" y2="80.713"/>
	
		<line fill="none" stroke="#2B2A29" stroke-width="0.5102" stroke-miterlimit="22.9256" x1="99.215" y1="55.469" x2="99.215" y2="129.474"/>
	
		<rect x="83.757" y="129.39" fill="none" stroke="#2B2A29" stroke-width="0.5102" stroke-miterlimit="22.9256" width="30.813" height="13.571"/>
</g>
</svg>
