<?xml version="1.0" encoding="utf-8"?>
<!-- Generator: Adobe Illustrator 16.0.0, SVG Export Plug-In . SVG Version: 6.00 Build 0)  -->
<!DOCTYPE svg PUBLIC "-//W3C//DTD SVG 1.0//EN" "http://www.w3.org/TR/2001/REC-SVG-20010904/DTD/svg10.dtd">
<svg version="1.0" id="Layer_1" xmlns="http://www.w3.org/2000/svg" xmlns:xlink="http://www.w3.org/1999/xlink" x="0px" y="0px"
	 width="198.43px" height="198.43px" viewBox="0 0 198.43 198.43" enable-background="new 0 0 198.43 198.43" xml:space="preserve">
<g>
	<polygon fill-rule="evenodd" clip-rule="evenodd" fill="#FFFFFF" points="67.377,81.519 131.053,81.519 139.043,62.354 
		59.386,62.354 	"/>
	<polygon fill="none" stroke="#2B2A29" stroke-width="0.5102" stroke-miterlimit="22.9256" points="67.377,81.519 131.053,81.519 
		139.043,62.354 59.386,62.354 	"/>
	<polygon fill-rule="evenodd" clip-rule="evenodd" fill="#FFFFFF" points="40.221,81.519 59.386,89.51 59.386,136.076 
		40.221,136.076 	"/>
	<polygon fill="none" stroke="#2B2A29" stroke-width="0.5102" stroke-miterlimit="22.9256" points="40.221,81.519 59.386,89.51 
		59.386,136.076 40.221,136.076 	"/>
	<polygon fill-rule="evenodd" clip-rule="evenodd" fill="#FFFFFF" points="158.209,81.519 139.043,89.51 139.043,136.076 
		158.209,136.076 	"/>
	<polygon fill="none" stroke="#2B2A29" stroke-width="0.5102" stroke-miterlimit="22.9256" points="158.209,81.519 139.043,89.51 
		139.043,136.076 158.209,136.076 	"/>
	<polygon fill-rule="evenodd" clip-rule="evenodd" fill="#FFFFFF" points="40.221,81.519 59.386,89.51 67.377,81.519 59.386,62.354 
			"/>
	<polygon fill="none" stroke="#2B2A29" stroke-width="0.5102" stroke-miterlimit="22.9256" points="40.221,81.519 59.386,89.51 
		67.377,81.519 59.386,62.354 	"/>
	<polygon fill-rule="evenodd" clip-rule="evenodd" fill="#FFFFFF" points="158.209,81.519 139.043,89.51 131.053,81.519 
		139.043,62.354 	"/>
	<polygon fill="none" stroke="#2B2A29" stroke-width="0.5102" stroke-miterlimit="22.9256" points="158.209,81.519 139.043,89.51 
		131.053,81.519 139.043,62.354 	"/>
</g>
</svg>
