<?xml version="1.0" encoding="utf-8"?>
<!-- Generator: Adobe Illustrator 16.0.0, SVG Export Plug-In . SVG Version: 6.00 Build 0)  -->
<!DOCTYPE svg PUBLIC "-//W3C//DTD SVG 1.0//EN" "http://www.w3.org/TR/2001/REC-SVG-20010904/DTD/svg10.dtd">
<svg version="1.0" id="Layer_1" xmlns="http://www.w3.org/2000/svg" xmlns:xlink="http://www.w3.org/1999/xlink" x="0px" y="0px"
	 width="198.43px" height="198.43px" viewBox="0 0 198.43 198.43" enable-background="new 0 0 198.43 198.43" xml:space="preserve">
<g>
	<polygon fill="none" stroke="#22201E" stroke-width="0.5102" stroke-miterlimit="22.9256" points="61.753,136.209 43.958,136.209 
		43.958,108.725 49.366,92.079 59.655,77.917 73.817,67.629 90.462,62.221 107.965,62.221 124.611,67.629 138.773,77.917 
		149.059,92.077 154.472,108.723 154.472,136.209 136.677,136.209 136.677,111.543 133.008,100.258 126.032,90.656 116.432,83.682 
		105.147,80.016 93.281,80.016 81.995,83.682 72.395,90.656 65.419,100.258 61.753,111.543 	"/>
	
		<line fill="none" stroke="#2B2A29" stroke-width="0.5102" stroke-miterlimit="22.9256" x1="105.147" y1="80.016" x2="107.965" y2="62.221"/>
	
		<line fill="none" stroke="#2B2A29" stroke-width="0.5102" stroke-miterlimit="22.9256" x1="93.281" y1="80.016" x2="90.462" y2="62.221"/>
	
		<line fill="none" stroke="#2B2A29" stroke-width="0.5102" stroke-miterlimit="22.9256" x1="116.432" y1="83.682" x2="124.611" y2="67.629"/>
	
		<line fill="none" stroke="#2B2A29" stroke-width="0.5102" stroke-miterlimit="22.9256" x1="126.032" y1="90.656" x2="138.773" y2="77.917"/>
	
		<line fill="none" stroke="#2B2A29" stroke-width="0.5102" stroke-miterlimit="22.9256" x1="81.995" y1="83.682" x2="73.817" y2="67.629"/>
	
		<line fill="none" stroke="#2B2A29" stroke-width="0.5102" stroke-miterlimit="22.9256" x1="59.655" y1="77.917" x2="72.395" y2="90.656"/>
	
		<line fill="none" stroke="#2B2A29" stroke-width="0.5102" stroke-miterlimit="22.9256" x1="133.008" y1="100.258" x2="149.059" y2="92.077"/>
	
		<line fill="none" stroke="#2B2A29" stroke-width="0.5102" stroke-miterlimit="22.9256" x1="136.677" y1="111.543" x2="154.472" y2="108.723"/>
	
		<line fill="none" stroke="#2B2A29" stroke-width="0.5102" stroke-miterlimit="22.9256" x1="65.419" y1="100.258" x2="49.366" y2="92.079"/>
	
		<line fill="none" stroke="#2B2A29" stroke-width="0.5102" stroke-miterlimit="22.9256" x1="61.753" y1="111.543" x2="43.958" y2="108.725"/>
</g>
</svg>
