<?xml version="1.0" encoding="utf-8"?>
<!-- Generator: Adobe Illustrator 16.0.0, SVG Export Plug-In . SVG Version: 6.00 Build 0)  -->
<!DOCTYPE svg PUBLIC "-//W3C//DTD SVG 1.0//EN" "http://www.w3.org/TR/2001/REC-SVG-20010904/DTD/svg10.dtd">
<svg version="1.0" id="Layer_1" xmlns="http://www.w3.org/2000/svg" xmlns:xlink="http://www.w3.org/1999/xlink" x="0px" y="0px"
	 width="198.43px" height="198.43px" viewBox="0 0 198.43 198.43" enable-background="new 0 0 198.43 198.43" xml:space="preserve">
<g>
	
		<line fill="none" stroke="#2B2A29" stroke-width="0.5102" stroke-miterlimit="22.9256" x1="116.411" y1="97.545" x2="82.022" y2="97.545"/>
	
		<line fill="none" stroke="#2B2A29" stroke-width="0.5102" stroke-miterlimit="22.9256" x1="116.411" y1="159.692" x2="82.022" y2="159.692"/>
	
		<line fill="none" stroke="#2B2A29" stroke-width="0.5102" stroke-miterlimit="22.9256" x1="91.816" y1="33.686" x2="106.616" y2="33.686"/>
	
		<line fill="none" stroke="#2B2A29" stroke-width="0.5102" stroke-miterlimit="22.9256" x1="91.906" y1="40.604" x2="106.525" y2="40.604"/>
	<path fill="none" stroke="#232120" stroke-width="0.5102" stroke-miterlimit="22.9256" d="M99.214,29.155h-0.002h-5.344
		c-0.441,0-0.785,0.085-0.967,0.16c-0.938,0.389-1.946,1.426-1.875,3.145c0.018,0.443,0.036,1.227,0.786,1.227
		c0,0-1.041,4.002-0.877,5.062c0.065,0.854,0.726,1.407,0.968,1.856c0.013,0.461-0.182,6.678-0.333,8.535
		c-0.151,1.856-0.608,8.497-1.471,12.407s-2.406,10.921-3.678,15.101s-4.404,16.268-4.404,20.898v62.146
		c0,1.074,1.748,9.584,3.378,9.584h13.815"/>
	<path fill="none" stroke="#232120" stroke-width="0.5102" stroke-miterlimit="22.9256" d="M96.385,29.155
		c-0.403,0-0.717,0.085-0.883,0.16c-0.856,0.389-1.779,1.426-1.714,3.145c0.017,0.443,0.033,1.227,0.719,1.227
		c0,0-0.952,4.002-0.802,5.062c0.06,0.854,0.664,1.407,0.885,1.856c0.012,0.461-0.166,6.678-0.304,8.535
		c-0.139,1.856-0.557,8.497-1.345,12.407s-2.199,10.921-3.361,15.101s-4.024,16.268-4.024,20.898v62.146
		c0,1.202,1.53,9.584,3.01,9.584"/>
	<path fill="none" stroke="#232120" stroke-width="0.5102" stroke-miterlimit="22.9256" d="M97.955,29.155
		c-0.349,0.389-0.673,1.586-0.646,3.305c0.007,0.443,0.014,1.227,0.293,1.227c0,0-0.388,4.002-0.327,5.062
		c0.024,0.854,0.271,1.407,0.36,1.856c0.005,0.461-0.067,6.678-0.124,8.535c-0.056,1.856-0.226,8.497-0.547,12.407
		s-0.896,10.921-1.369,15.101s-1.639,16.268-1.639,20.898v62.146c0,1.074,0.402,9.584,1.009,9.584h0.046"/>
	<path fill="none" stroke="#232120" stroke-width="0.5102" stroke-miterlimit="22.9256" d="M99.217,29.155L99.217,29.155h5.346
		c0.441,0,0.785,0.085,0.966,0.16c0.938,0.389,1.947,1.426,1.876,3.145c-0.019,0.443-0.036,1.227-0.787,1.227
		c0,0,1.042,4.002,0.878,5.062c-0.065,0.854-0.727,1.407-0.969,1.856c-0.013,0.461,0.182,6.678,0.333,8.535
		c0.151,1.856,0.608,8.497,1.471,12.407c0.863,3.91,2.407,10.921,3.679,15.101s4.403,16.268,4.403,20.898v62.146
		c0,1.074-1.747,9.584-3.378,9.584H99.219"/>
	<path fill="none" stroke="#232120" stroke-width="0.5102" stroke-miterlimit="22.9256" d="M102.045,29.155
		c0.403,0,0.718,0.085,0.883,0.16c0.857,0.389,1.779,1.426,1.714,3.145c-0.017,0.443-0.033,1.227-0.719,1.227
		c0,0,0.952,4.002,0.802,5.062c-0.06,0.854-0.663,1.407-0.885,1.856c-0.012,0.461,0.166,6.678,0.305,8.535
		c0.138,1.856,0.556,8.497,1.344,12.407s2.2,10.921,3.361,15.101c1.162,4.18,4.024,16.268,4.024,20.898v62.146
		c0,1.202-1.53,9.584-3.01,9.584"/>
	<path fill="none" stroke="#232120" stroke-width="0.5102" stroke-miterlimit="22.9256" d="M100.61,29.155
		c0.349,0.389,0.674,1.586,0.647,3.305c-0.007,0.443-0.014,1.227-0.293,1.227c0,0,0.388,4.002,0.326,5.062
		c-0.024,0.854-0.27,1.407-0.359,1.856c-0.005,0.461,0.066,6.678,0.123,8.535c0.057,1.856,0.227,8.497,0.548,12.407
		s0.896,10.921,1.369,15.101c0.473,4.18,1.639,16.268,1.639,20.898v62.146c0,1.074-0.402,9.584-1.009,9.584h-0.046"/>
</g>
</svg>
