<?xml version="1.0" encoding="utf-8"?>
<!-- Generator: Adobe Illustrator 16.0.0, SVG Export Plug-In . SVG Version: 6.00 Build 0)  -->
<!DOCTYPE svg PUBLIC "-//W3C//DTD SVG 1.0//EN" "http://www.w3.org/TR/2001/REC-SVG-20010904/DTD/svg10.dtd">
<svg version="1.0" id="Layer_1" xmlns="http://www.w3.org/2000/svg" xmlns:xlink="http://www.w3.org/1999/xlink" x="0px" y="0px"
	 width="198.43px" height="198.43px" viewBox="0 0 198.43 198.43" enable-background="new 0 0 198.43 198.43" xml:space="preserve">
<g>
	<polygon fill-rule="evenodd" clip-rule="evenodd" fill="#FFFFFF" points="95.74,58.316 102.641,58.316 102.641,74.917 
		133.204,50.719 136.234,54.541 102.641,81.138 102.641,153.651 95.74,153.651 95.74,81.093 62.148,54.514 65.177,50.692 
		95.74,74.873 	"/>
	<polygon fill="none" stroke="#2B2A29" stroke-width="0.5102" stroke-miterlimit="22.9256" points="95.74,58.316 102.641,58.316 
		102.641,74.917 133.204,50.719 136.234,54.541 102.641,81.138 102.641,153.651 95.74,153.651 95.74,81.093 62.148,54.514 
		65.177,50.692 95.74,74.873 	"/>
	<polygon fill="none" stroke="#2B2A29" stroke-width="0.216" stroke-miterlimit="22.9256" points="102.5,49.735 102.039,53.119 
		101.643,55.595 101.616,58.115 101.238,58.096 101.161,55.605 101.569,53.692 	"/>
	<polygon fill="none" stroke="#2B2A29" stroke-width="0.216" stroke-miterlimit="22.9256" points="94.768,49.773 95.23,53.158 
		95.626,55.633 95.653,58.155 96.032,58.134 96.107,55.643 95.7,53.731 	"/>
	<path fill="none" stroke="#2B2A29" stroke-width="0.216" stroke-miterlimit="22.9256" d="M96.337,49.97l-0.021,3.419
		c-0.047,0.402-0.094,0.806-0.142,1.209l-0.07,3.575l0.488-0.019c-0.062-1.055-0.123-2.108-0.185-3.163l0.275-1.984L96.337,49.97z"
		/>
	<polygon fill="none" stroke="#2B2A29" stroke-width="0.216" stroke-miterlimit="22.9256" points="100.811,48.88 101.293,53.73 
		101.328,58.226 100.929,58.235 100.898,54.057 100.696,51.563 	"/>
	<polygon fill="none" stroke="#2B2A29" stroke-width="0.216" stroke-miterlimit="22.9256" points="97.221,49.261 96.74,53.881 
		96.703,58.165 97.104,58.173 97.134,54.193 97.336,51.817 	"/>
	<polygon fill="none" stroke="#2B2A29" stroke-width="0.216" stroke-miterlimit="22.9256" points="97.517,58.231 97.566,55.462 
		97.53,52.994 97.842,48.89 97.954,51.575 97.809,53.043 97.892,55.122 97.758,58.193 	"/>
	<polygon fill="none" stroke="#2B2A29" stroke-width="0.216" stroke-miterlimit="22.9256" points="100.002,58.229 99.951,55.33 
		99.765,53.864 99.669,50.706 99.519,53.522 99.546,55.079 99.77,56.416 99.76,58.105 	"/>
	<polygon fill="none" stroke="#2B2A29" stroke-width="0.216" stroke-miterlimit="22.9256" points="98.304,58.241 98.356,55.343 
		98.542,53.875 98.638,50.718 98.788,53.534 98.761,55.092 98.537,56.429 98.547,58.116 	"/>
	<path fill="none" stroke="#2B2A29" stroke-width="0.216" stroke-miterlimit="22.9256" d="M98.785,58.208l0.159-2.204l0.122-2.334
		l-0.052-1.603l0.073-1.902l0.131,1.646l0.123,2.124l-0.151,1.771l-0.045,2.509C99.146,58.215,98.825,58.209,98.785,58.208z"/>
	<path fill="none" stroke="#2B2A29" stroke-width="0.216" stroke-miterlimit="22.9256" d="M100.17,58.153
		c0.099-0.494,0.28-1.808,0.328-2.72c0.032-0.606-0.255-1.24-0.088-1.819l0.598-2.064c-0.053,0.691-0.124,1.381-0.157,2.073
		c-0.029,0.619,0.044,1.246-0.033,1.86l-0.326,2.633L100.17,58.153z"/>
	<path fill="none" stroke="#2B2A29" stroke-width="0.216" stroke-miterlimit="22.9256" d="M102.27,58.28
		c0.088-1.195,0.18-2.391,0.264-3.586c0.077-1.095,0.297-2.19,0.218-3.284c-0.094-1.326-0.487-2.607-0.731-3.91
		c0.364,1.335,0.854,2.637,1.092,4.004c0.093,0.539-0.062,1.096-0.109,1.642c-0.069,0.779-0.186,1.553-0.242,2.332
		c-0.066,0.921-0.086,1.845-0.129,2.768C102.511,58.256,102.391,58.268,102.27,58.28z"/>
	
		<line fill="none" stroke="#2B2A29" stroke-width="0.5102" stroke-miterlimit="22.9256" x1="102.641" y1="74.917" x2="102.641" y2="81.138"/>
	
		<line fill="none" stroke="#2B2A29" stroke-width="0.5102" stroke-miterlimit="22.9256" x1="95.74" y1="74.873" x2="95.74" y2="81.093"/>
	<polygon fill="none" stroke="#2B2A29" stroke-width="0.216" stroke-miterlimit="22.9256" points="58.169,45.714 60.626,48.087 
		62.388,49.871 64.405,51.383 64.164,51.677 62.111,50.265 60.81,48.806 	"/>
	<polygon fill="none" stroke="#2B2A29" stroke-width="0.216" stroke-miterlimit="22.9256" points="56.481,46.572 60.677,49.05 
		64.323,51.68 64.094,52.008 60.706,49.562 58.575,48.25 	"/>
	<polygon fill="none" stroke="#2B2A29" stroke-width="0.216" stroke-miterlimit="22.9256" points="62.193,54.526 59.989,52.85 
		57.978,51.42 54.852,48.74 57.084,50.238 58.182,51.224 59.907,52.385 62.304,54.309 	"/>
	<polygon fill="none" stroke="#2B2A29" stroke-width="0.216" stroke-miterlimit="22.9256" points="63.542,52.751 61.175,51.079 
		59.881,50.362 57.278,48.572 59.46,50.359 60.732,51.257 61.943,51.866 63.298,52.873 	"/>
	<polygon fill="none" stroke="#2B2A29" stroke-width="0.216" stroke-miterlimit="22.9256" points="62.548,54.128 60.24,52.373 
		59.167,51.355 56.678,49.411 59.038,50.954 60.278,51.898 61.224,52.868 62.591,53.859 	"/>
	<path fill="none" stroke="#2B2A29" stroke-width="0.216" stroke-miterlimit="22.9256" d="M62.806,53.72l-1.684-1.432l-1.811-1.478
		l-1.322-0.905l-1.491-1.185l1.405,0.868l1.785,1.156l1.339,1.169l1.997,1.52C63.025,53.434,62.83,53.688,62.806,53.72z"/>
	<path fill="none" stroke="#2B2A29" stroke-width="0.216" stroke-miterlimit="22.9256" d="M63.579,52.571
		c-0.34-0.372-1.292-1.294-1.999-1.873c-0.47-0.384-1.151-0.526-1.52-1.004l-1.313-1.703c0.527,0.451,1.042,0.916,1.581,1.353
		c0.481,0.391,1.029,0.702,1.48,1.127l1.93,1.82L63.579,52.571z"/>
	<path fill="none" stroke="#2B2A29" stroke-width="0.216" stroke-miterlimit="22.9256" d="M64.924,50.952
		c-0.913-0.777-1.821-1.558-2.736-2.333c-0.838-0.709-1.591-1.534-2.521-2.118c-1.125-0.707-2.39-1.147-3.586-1.722
		c1.291,0.497,2.631,0.871,3.874,1.488c0.491,0.243,0.849,0.697,1.261,1.059c0.587,0.516,1.142,1.067,1.737,1.574
		c0.703,0.598,1.437,1.159,2.155,1.739C65.047,50.744,64.986,50.849,64.924,50.952z"/>
	<polygon fill="none" stroke="#2B2A29" stroke-width="0.216" stroke-miterlimit="22.9256" points="140.261,45.79 137.804,48.163 
		136.042,49.947 134.025,51.458 134.265,51.752 136.319,50.34 137.62,48.881 	"/>
	<polygon fill="none" stroke="#2B2A29" stroke-width="0.216" stroke-miterlimit="22.9256" points="141.949,46.648 137.753,49.126 
		134.106,51.755 134.335,52.084 137.723,49.638 139.854,48.326 	"/>
	<polygon fill="none" stroke="#2B2A29" stroke-width="0.216" stroke-miterlimit="22.9256" points="136.238,54.602 138.441,52.925 
		140.452,51.495 143.578,48.817 141.345,50.314 140.248,51.299 138.522,52.461 136.125,54.384 	"/>
	<polygon fill="none" stroke="#2B2A29" stroke-width="0.216" stroke-miterlimit="22.9256" points="134.888,52.827 137.255,51.155 
		138.549,50.437 141.152,48.648 138.97,50.434 137.698,51.332 136.487,51.943 135.132,52.948 	"/>
	<polygon fill="none" stroke="#2B2A29" stroke-width="0.216" stroke-miterlimit="22.9256" points="135.882,54.203 138.189,52.448 
		139.262,51.431 141.751,49.487 139.392,51.031 138.153,51.974 137.206,52.945 135.839,53.934 	"/>
	<path fill="none" stroke="#2B2A29" stroke-width="0.216" stroke-miterlimit="22.9256" d="M135.624,53.796l1.683-1.432l1.812-1.479
		l1.322-0.905l1.491-1.185l-1.406,0.868l-1.784,1.156l-1.34,1.17l-1.997,1.52C135.405,53.51,135.6,53.764,135.624,53.796z"/>
	<path fill="none" stroke="#2B2A29" stroke-width="0.216" stroke-miterlimit="22.9256" d="M134.851,52.647
		c0.34-0.372,1.291-1.295,1.999-1.873c0.47-0.385,1.15-0.526,1.519-1.005l1.313-1.702c-0.526,0.45-1.041,0.916-1.58,1.353
		c-0.481,0.39-1.029,0.701-1.48,1.126l-1.931,1.82L134.851,52.647z"/>
	<path fill="none" stroke="#2B2A29" stroke-width="0.216" stroke-miterlimit="22.9256" d="M133.506,51.029
		c0.912-0.778,1.821-1.559,2.736-2.333c0.837-0.71,1.591-1.534,2.52-2.118c1.126-0.708,2.391-1.147,3.586-1.722
		c-1.291,0.496-2.631,0.871-3.874,1.487c-0.49,0.243-0.848,0.697-1.26,1.06c-0.587,0.516-1.143,1.066-1.737,1.573
		c-0.703,0.599-1.437,1.16-2.155,1.74C133.383,50.821,133.445,50.924,133.506,51.029z"/>
</g>
</svg>
