<?xml version="1.0" encoding="utf-8"?>
<!-- Generator: Adobe Illustrator 16.0.0, SVG Export Plug-In . SVG Version: 6.00 Build 0)  -->
<!DOCTYPE svg PUBLIC "-//W3C//DTD SVG 1.0//EN" "http://www.w3.org/TR/2001/REC-SVG-20010904/DTD/svg10.dtd">
<svg version="1.0" id="Layer_1" xmlns="http://www.w3.org/2000/svg" xmlns:xlink="http://www.w3.org/1999/xlink" x="0px" y="0px"
	 width="198.43px" height="198.43px" viewBox="0 0 198.43 198.43" enable-background="new 0 0 198.43 198.43" xml:space="preserve">
<g>
	<polygon fill="none" stroke="#2B2A29" stroke-width="0.216" stroke-miterlimit="22.9256" points="102.835,51.198 102.336,54.863 
		101.906,57.543 101.877,60.273 101.467,60.251 101.386,57.554 101.826,55.483 	"/>
	<polygon fill="none" stroke="#2B2A29" stroke-width="0.216" stroke-miterlimit="22.9256" points="94.463,51.24 94.962,54.905 
		95.392,57.585 95.42,60.314 95.831,60.293 95.911,57.595 95.471,55.525 	"/>
	<path fill="none" stroke="#2B2A29" stroke-width="0.216" stroke-miterlimit="22.9256" d="M96.161,51.453l-0.021,3.701
		c-0.052,0.437-0.103,0.873-0.154,1.31l-0.076,3.871l0.529-0.02c-0.066-1.142-0.133-2.283-0.199-3.425l0.298-2.149L96.161,51.453z"
		/>
	<polygon fill="none" stroke="#2B2A29" stroke-width="0.216" stroke-miterlimit="22.9256" points="101.006,50.272 101.528,55.524 
		101.567,60.392 101.133,60.402 101.1,55.878 100.881,53.177 	"/>
	<polygon fill="none" stroke="#2B2A29" stroke-width="0.216" stroke-miterlimit="22.9256" points="97.118,50.685 96.597,55.688 
		96.558,60.327 96.991,60.336 97.025,56.025 97.243,53.452 	"/>
	<polygon fill="none" stroke="#2B2A29" stroke-width="0.216" stroke-miterlimit="22.9256" points="97.439,60.398 97.491,57.4 
		97.452,54.728 97.79,50.283 97.912,53.191 97.754,54.781 97.845,57.032 97.699,60.356 	"/>
	<polygon fill="none" stroke="#2B2A29" stroke-width="0.216" stroke-miterlimit="22.9256" points="100.13,60.396 100.074,57.258 
		99.873,55.669 99.769,52.25 99.607,55.299 99.636,56.985 99.878,58.433 99.867,60.26 	"/>
	<polygon fill="none" stroke="#2B2A29" stroke-width="0.216" stroke-miterlimit="22.9256" points="98.291,60.409 98.347,57.271 
		98.548,55.681 98.653,52.263 98.816,55.312 98.786,56.999 98.543,58.446 98.554,60.274 	"/>
	<path fill="none" stroke="#2B2A29" stroke-width="0.216" stroke-miterlimit="22.9256" d="M98.813,60.373l0.173-2.386l0.131-2.528
		l-0.056-1.734l0.079-2.061l0.143,1.783l0.133,2.299l-0.164,1.918l-0.048,2.718C99.203,60.382,98.857,60.374,98.813,60.373z"/>
	<path fill="none" stroke="#2B2A29" stroke-width="0.216" stroke-miterlimit="22.9256" d="M100.312,60.313
		c0.107-0.535,0.304-1.957,0.355-2.945c0.034-0.656-0.276-1.343-0.096-1.97l0.647-2.236c-0.057,0.749-0.134,1.496-0.17,2.246
		c-0.032,0.67,0.047,1.349-0.036,2.014l-0.354,2.852L100.312,60.313z"/>
	<path fill="none" stroke="#2B2A29" stroke-width="0.216" stroke-miterlimit="22.9256" d="M102.585,60.451
		c0.096-1.295,0.195-2.589,0.286-3.884c0.083-1.185,0.321-2.371,0.236-3.557c-0.103-1.436-0.529-2.822-0.793-4.233
		c0.394,1.445,0.924,2.855,1.182,4.336c0.102,0.584-0.066,1.187-0.118,1.777c-0.074,0.844-0.2,1.681-0.262,2.525
		c-0.072,0.997-0.093,1.998-0.14,2.996C102.846,60.425,102.716,60.438,102.585,60.451z"/>
	
		<rect x="57.282" y="60.627" transform="matrix(0.7837 0.6211 -0.6211 0.7837 56.171 -34.9304)" fill-rule="evenodd" clip-rule="evenodd" fill="#FFFFFF" width="41.924" height="5.133"/>
	
		<rect x="57.282" y="60.627" transform="matrix(0.7837 0.6211 -0.6211 0.7837 56.171 -34.9304)" fill="none" stroke="#2B2A29" stroke-width="0.5102" stroke-miterlimit="22.9256" width="41.924" height="5.133"/>
	
		<rect x="99.221" y="60.655" transform="matrix(-0.7837 0.6211 -0.6211 -0.7837 253.6411 38.1257)" fill-rule="evenodd" clip-rule="evenodd" fill="#FFFFFF" width="41.924" height="5.133"/>
	
		<rect x="99.221" y="60.655" transform="matrix(-0.7837 0.6211 -0.6211 -0.7837 253.6411 38.1257)" fill="none" stroke="#2B2A29" stroke-width="0.5102" stroke-miterlimit="22.9256" width="41.924" height="5.133"/>
	<polygon fill-rule="evenodd" clip-rule="evenodd" fill="#FFFFFF" points="93.996,92.205 93.079,78.225 96.267,74.202 
		102.159,74.23 105.348,78.254 104.431,92.205 99.209,92.545 	"/>
	<polygon fill="none" stroke="#2B2A29" stroke-width="0.5102" stroke-miterlimit="22.9256" points="93.996,92.205 93.079,78.225 
		96.267,74.202 102.159,74.23 105.348,78.254 104.431,92.205 99.209,92.545 	"/>
	<polygon fill-rule="evenodd" clip-rule="evenodd" fill="#FFFFFF" points="93.996,92.205 91.851,101.631 87.981,131.114 
		87.981,156.539 95.538,156.539 95.538,132.141 99.245,104.817 102.888,132.141 102.888,156.539 110.554,156.539 110.554,132.182 
		106.575,101.631 104.431,92.205 99.218,92.545 	"/>
	<polygon fill="none" stroke="#2B2A29" stroke-width="0.5102" stroke-miterlimit="22.9256" points="93.996,92.205 91.851,101.631 
		87.981,131.114 87.981,156.539 95.538,156.539 95.538,132.141 99.245,104.817 102.888,132.141 102.888,156.539 110.554,156.539 
		110.554,132.182 106.575,101.631 104.431,92.205 99.218,92.545 	"/>
	<path fill="none" stroke="#2B2A29" stroke-width="0.5102" stroke-miterlimit="22.9256" d="M96.267,74.202l-0.004-0.994
		c0,0-0.717-0.798-0.715-2.143c0.004-1.346,0.043-10.663,0.043-10.663h3.615"/>
	<path fill="none" stroke="#2B2A29" stroke-width="0.5102" stroke-miterlimit="22.9256" d="M102.146,74.202l0.004-0.994
		c0,0,0.718-0.798,0.715-2.143c-0.004-1.346-0.043-10.663-0.043-10.663h-3.615"/>
	
		<line fill="none" stroke="#2B2A29" stroke-width="0.5102" stroke-miterlimit="22.9256" x1="95.538" y1="132.141" x2="87.981" y2="131.114"/>
	
		<line fill="none" stroke="#2B2A29" stroke-width="0.5102" stroke-miterlimit="22.9256" x1="110.554" y1="132.182" x2="102.888" y2="132.182"/>
	
		<line fill="none" stroke="#2B2A29" stroke-width="0.5102" stroke-miterlimit="22.9256" x1="99.245" y1="104.817" x2="99.245" y2="92.545"/>
	<polygon fill="none" stroke="#2B2A29" stroke-width="0.216" stroke-miterlimit="22.9256" points="56.022,42.875 58.609,45.373 
		60.462,47.251 62.586,48.842 62.332,49.151 60.172,47.665 58.801,46.129 	"/>
	<polygon fill="none" stroke="#2B2A29" stroke-width="0.216" stroke-miterlimit="22.9256" points="54.244,43.777 58.661,46.386 
		62.501,49.154 62.259,49.5 58.694,46.925 56.45,45.545 	"/>
	<polygon fill="none" stroke="#2B2A29" stroke-width="0.216" stroke-miterlimit="22.9256" points="60.257,52.15 57.937,50.385 
		55.82,48.881 52.531,46.06 54.88,47.636 56.035,48.675 57.853,49.897 60.374,51.922 	"/>
	<polygon fill="none" stroke="#2B2A29" stroke-width="0.216" stroke-miterlimit="22.9256" points="61.678,50.282 59.186,48.522 
		57.823,47.766 55.084,45.883 57.381,47.763 58.72,48.71 59.994,49.351 61.421,50.411 	"/>
	<polygon fill="none" stroke="#2B2A29" stroke-width="0.216" stroke-miterlimit="22.9256" points="60.632,51.731 58.202,49.884 
		57.073,48.812 54.453,46.766 56.937,48.391 58.241,49.384 59.238,50.406 60.676,51.448 	"/>
	<path fill="none" stroke="#2B2A29" stroke-width="0.216" stroke-miterlimit="22.9256" d="M60.903,51.302l-1.771-1.506l-1.906-1.557
		l-1.392-0.953l-1.57-1.246l1.48,0.913l1.878,1.218l1.409,1.23l2.104,1.6C61.134,51.001,60.928,51.268,60.903,51.302z"/>
	<path fill="none" stroke="#2B2A29" stroke-width="0.216" stroke-miterlimit="22.9256" d="M61.717,50.093
		c-0.357-0.392-1.359-1.362-2.104-1.972c-0.495-0.404-1.212-0.555-1.6-1.058l-1.382-1.792c0.555,0.475,1.096,0.964,1.663,1.424
		c0.507,0.411,1.085,0.738,1.56,1.186l2.031,1.916L61.717,50.093z"/>
	<path fill="none" stroke="#2B2A29" stroke-width="0.216" stroke-miterlimit="22.9256" d="M63.133,48.389
		c-0.961-0.819-1.919-1.641-2.881-2.456c-0.882-0.747-1.675-1.615-2.653-2.229c-1.184-0.745-2.517-1.208-3.774-1.813
		c1.359,0.522,2.77,0.917,4.078,1.566c0.517,0.256,0.893,0.733,1.326,1.114c0.618,0.543,1.202,1.123,1.829,1.656
		c0.74,0.63,1.513,1.222,2.269,1.832C63.262,48.17,63.198,48.279,63.133,48.389z"/>
	<polygon fill="none" stroke="#2B2A29" stroke-width="0.216" stroke-miterlimit="22.9256" points="142.408,42.924 139.822,45.422 
		137.968,47.3 135.844,48.89 136.097,49.2 138.258,47.714 139.628,46.177 	"/>
	<polygon fill="none" stroke="#2B2A29" stroke-width="0.216" stroke-miterlimit="22.9256" points="144.185,43.826 139.768,46.435 
		135.929,49.203 136.171,49.549 139.737,46.973 141.98,45.594 	"/>
	<polygon fill="none" stroke="#2B2A29" stroke-width="0.216" stroke-miterlimit="22.9256" points="138.172,52.199 140.492,50.434 
		142.61,48.929 145.9,46.109 143.55,47.685 142.395,48.722 140.577,49.946 138.055,51.97 	"/>
	<polygon fill="none" stroke="#2B2A29" stroke-width="0.216" stroke-miterlimit="22.9256" points="136.752,50.331 139.244,48.57 
		140.606,47.815 143.346,45.931 141.049,47.812 139.71,48.759 138.436,49.4 137.009,50.459 	"/>
	<polygon fill="none" stroke="#2B2A29" stroke-width="0.216" stroke-miterlimit="22.9256" points="137.798,51.78 140.227,49.932 
		141.357,48.861 143.977,46.815 141.493,48.44 140.188,49.432 139.193,50.455 137.753,51.496 	"/>
	<path fill="none" stroke="#2B2A29" stroke-width="0.216" stroke-miterlimit="22.9256" d="M137.527,51.35l1.771-1.506l1.906-1.557
		l1.393-0.953l1.569-1.247l-1.479,0.914l-1.879,1.218l-1.409,1.23l-2.103,1.6C137.296,51.05,137.501,51.317,137.527,51.35z"/>
	<path fill="none" stroke="#2B2A29" stroke-width="0.216" stroke-miterlimit="22.9256" d="M136.713,50.141
		c0.357-0.392,1.359-1.363,2.104-1.972c0.495-0.405,1.212-0.555,1.6-1.058l1.382-1.792c-0.555,0.475-1.097,0.964-1.663,1.424
		c-0.508,0.41-1.085,0.738-1.56,1.186l-2.031,1.916L136.713,50.141z"/>
	<path fill="none" stroke="#2B2A29" stroke-width="0.216" stroke-miterlimit="22.9256" d="M135.297,48.438
		c0.96-0.819,1.918-1.642,2.881-2.457c0.882-0.746,1.675-1.614,2.652-2.229c1.185-0.744,2.517-1.207,3.774-1.812
		c-1.358,0.522-2.77,0.917-4.077,1.565c-0.517,0.257-0.893,0.734-1.327,1.115c-0.617,0.543-1.201,1.123-1.829,1.656
		c-0.739,0.63-1.512,1.221-2.268,1.832C135.168,48.219,135.233,48.328,135.297,48.438z"/>
</g>
</svg>
