<?xml version="1.0" encoding="utf-8"?>
<!-- Generator: Adobe Illustrator 16.0.0, SVG Export Plug-In . SVG Version: 6.00 Build 0)  -->
<!DOCTYPE svg PUBLIC "-//W3C//DTD SVG 1.0//EN" "http://www.w3.org/TR/2001/REC-SVG-20010904/DTD/svg10.dtd">
<svg version="1.0" id="Layer_1" xmlns="http://www.w3.org/2000/svg" xmlns:xlink="http://www.w3.org/1999/xlink" x="0px" y="0px"
	 width="198.43px" height="198.43px" viewBox="0 0 198.43 198.43" enable-background="new 0 0 198.43 198.43" xml:space="preserve">
<g>
	<polygon fill-rule="evenodd" clip-rule="evenodd" fill="#FFFFFF" points="104.682,60.61 137.821,93.749 137.821,104.681 
		104.682,137.821 93.749,137.821 60.61,104.681 60.61,93.749 93.749,60.61 	"/>
	<polygon fill="none" stroke="#1F1917" stroke-width="0.5102" stroke-miterlimit="10" points="104.682,60.61 137.821,93.749 
		137.821,104.681 104.682,137.821 93.749,137.821 60.61,104.681 60.61,93.749 93.749,60.61 	"/>
	<path fill-rule="evenodd" clip-rule="evenodd" fill="#FFFFFF" d="M137.821,93.749c3.01,0,5.466,2.455,5.466,5.466
		s-2.456,5.466-5.466,5.466h-33.139v33.14c0,3.01-2.456,5.466-5.467,5.466s-5.467-2.456-5.466-5.466l-0.001-33.14H60.61l0,0
		c-3.01,0-5.466-2.455-5.466-5.466s2.456-5.467,5.466-5.466h33.14V60.61c0-3.01,2.455-5.466,5.466-5.466s5.467,2.456,5.467,5.466
		v33.14H137.821L137.821,93.749z"/>
	<path fill="none" stroke="#1F1917" stroke-width="0.5102" stroke-miterlimit="10" d="M137.821,93.749
		c3.01,0,5.466,2.455,5.466,5.466s-2.456,5.466-5.466,5.466h-33.139v33.14c0,3.01-2.456,5.466-5.467,5.466s-5.467-2.456-5.466-5.466
		l-0.001-33.14H60.61l0,0c-3.01,0-5.466-2.455-5.466-5.466s2.456-5.467,5.466-5.466h33.14V60.61c0-3.01,2.455-5.466,5.466-5.466
		s5.467,2.456,5.467,5.466v33.14H137.821L137.821,93.749z"/>
	
		<line fill="none" stroke="#1F1917" stroke-width="0.5102" stroke-miterlimit="10" x1="93.749" y1="104.681" x2="104.682" y2="93.742"/>
	
		<line fill="none" stroke="#1F1917" stroke-width="0.5102" stroke-miterlimit="10" x1="104.682" y1="104.681" x2="93.749" y2="93.749"/>
</g>
</svg>
