<?xml version="1.0" encoding="utf-8"?>
<!-- Generator: Adobe Illustrator 16.0.0, SVG Export Plug-In . SVG Version: 6.00 Build 0)  -->
<!DOCTYPE svg PUBLIC "-//W3C//DTD SVG 1.0//EN" "http://www.w3.org/TR/2001/REC-SVG-20010904/DTD/svg10.dtd">
<svg version="1.0" id="Layer_1" xmlns="http://www.w3.org/2000/svg" xmlns:xlink="http://www.w3.org/1999/xlink" x="0px" y="0px"
	 width="198.43px" height="198.43px" viewBox="0 0 198.43 198.43" enable-background="new 0 0 198.43 198.43" xml:space="preserve">
<g>
	<polyline fill="none" stroke="#2B2A29" stroke-width="0.5102" stroke-miterlimit="22.9256" points="45.265,135.337 46.184,125.423 
		48.909,115.848 53.346,106.937 59.346,98.991 66.703,92.284 75.168,87.044 84.451,83.448 94.237,81.618 104.194,81.618 
		113.979,83.448 123.262,87.044 131.727,92.284 139.084,98.991 145.084,106.937 149.522,115.849 152.246,125.423 153.164,135.337 	
		"/>
	<polyline fill="none" stroke="#2B2A29" stroke-width="0.5102" stroke-miterlimit="22.9256" points="80.74,135.337 26.663,135.337 
		27.898,122.005 31.562,109.128 37.529,97.143 45.598,86.458 55.493,77.439 66.876,70.39 79.36,65.554 92.521,63.094 105.91,63.094 
		119.071,65.554 131.555,70.39 142.938,77.439 152.832,86.458 160.901,97.144 166.867,109.128 170.531,122.005 171.768,135.337 
		117.688,135.337 	"/>
	
		<line fill="none" stroke="#2B2A29" stroke-width="0.5102" stroke-miterlimit="22.9256" x1="117.375" y1="131.943" x2="170.531" y2="122.005"/>
	
		<line fill="none" stroke="#2B2A29" stroke-width="0.5102" stroke-miterlimit="22.9256" x1="116.444" y1="128.662" x2="166.867" y2="109.128"/>
	
		<line fill="none" stroke="#2B2A29" stroke-width="0.5102" stroke-miterlimit="22.9256" x1="114.922" y1="125.612" x2="160.901" y2="97.144"/>
	
		<line fill="none" stroke="#2B2A29" stroke-width="0.5102" stroke-miterlimit="22.9256" x1="112.865" y1="122.892" x2="152.832" y2="86.459"/>
	
		<line fill="none" stroke="#2B2A29" stroke-width="0.5102" stroke-miterlimit="22.9256" x1="110.348" y1="120.595" x2="142.94" y2="77.44"/>
	
		<line fill="none" stroke="#2B2A29" stroke-width="0.5102" stroke-miterlimit="22.9256" x1="107.451" y1="118.798" x2="131.557" y2="70.392"/>
	
		<line fill="none" stroke="#2B2A29" stroke-width="0.5102" stroke-miterlimit="22.9256" x1="104.272" y1="117.566" x2="119.073" y2="65.555"/>
	
		<line fill="none" stroke="#2B2A29" stroke-width="0.5102" stroke-miterlimit="22.9256" x1="100.92" y1="116.942" x2="105.912" y2="63.094"/>
	
		<line fill="none" stroke="#2B2A29" stroke-width="0.5102" stroke-miterlimit="22.9256" x1="97.511" y1="116.942" x2="92.523" y2="63.093"/>
	
		<line fill="none" stroke="#2B2A29" stroke-width="0.5102" stroke-miterlimit="22.9256" x1="94.159" y1="117.564" x2="79.363" y2="65.554"/>
	
		<line fill="none" stroke="#2B2A29" stroke-width="0.5102" stroke-miterlimit="22.9256" x1="90.979" y1="118.796" x2="66.879" y2="70.39"/>
	
		<line fill="none" stroke="#2B2A29" stroke-width="0.5102" stroke-miterlimit="22.9256" x1="88.082" y1="120.593" x2="55.495" y2="77.437"/>
	
		<line fill="none" stroke="#2B2A29" stroke-width="0.5102" stroke-miterlimit="22.9256" x1="85.563" y1="122.89" x2="45.6" y2="86.456"/>
	
		<line fill="none" stroke="#2B2A29" stroke-width="0.5102" stroke-miterlimit="22.9256" x1="83.506" y1="125.609" x2="37.532" y2="97.14"/>
	
		<line fill="none" stroke="#2B2A29" stroke-width="0.5102" stroke-miterlimit="22.9256" x1="81.984" y1="128.66" x2="31.563" y2="109.124"/>
	
		<line fill="none" stroke="#2B2A29" stroke-width="0.5102" stroke-miterlimit="22.9256" x1="81.052" y1="131.941" x2="27.898" y2="122.001"/>
	<path fill="none" stroke="#2B2A29" stroke-width="0.5102" stroke-miterlimit="22.9256" d="M117.688,135.337
		c0-10.203-8.271-18.473-18.474-18.473c-10.203,0-18.474,8.27-18.474,18.473"/>
	<polyline fill="none" stroke="#1E1A1F" stroke-width="0.2835" stroke-miterlimit="22.9256" points="29.465,135.337 30.64,122.645 
		34.164,110.263 39.902,98.74 47.66,88.466 57.175,79.792 68.12,73.015 80.124,68.365 92.778,65.999 105.653,65.999 118.307,68.365 
		130.311,73.016 141.256,79.792 150.77,88.466 158.528,98.74 164.266,110.263 167.789,122.646 168.965,135.337 	"/>
	<polyline fill="none" stroke="#1E1A1F" stroke-width="0.2835" stroke-miterlimit="22.9256" points="42.487,135.337 43.441,125.038 
		46.306,114.967 50.974,105.595 57.284,97.239 65.022,90.185 73.924,84.673 83.687,80.89 93.98,78.966 104.449,78.966 
		114.742,80.89 124.506,84.673 133.408,90.185 141.147,97.239 147.455,105.595 152.123,114.968 154.989,125.038 155.944,135.337 	
		"/>
</g>
</svg>
