<?xml version="1.0" encoding="utf-8"?>
<!-- Generator: Adobe Illustrator 16.0.0, SVG Export Plug-In . SVG Version: 6.00 Build 0)  -->
<!DOCTYPE svg PUBLIC "-//W3C//DTD SVG 1.0//EN" "http://www.w3.org/TR/2001/REC-SVG-20010904/DTD/svg10.dtd">
<svg version="1.0" id="Layer_1" xmlns="http://www.w3.org/2000/svg" xmlns:xlink="http://www.w3.org/1999/xlink" x="0px" y="0px"
	 width="198.43px" height="198.43px" viewBox="0 0 198.43 198.43" enable-background="new 0 0 198.43 198.43" xml:space="preserve">
<g>
	<path fill="#2B2A29" d="M108.229,68.557c8.656,2.687,16.051,9.15,21.963,17.207c7.689,10.482,12.875,23.67,15.061,34.726
		c-1.408-11.547-5.17-25.418-12.971-36.049C126.615,76.718,118.813,70.709,108.229,68.557z M53.201,120.49
		c2.221-11.037,7.472-24.198,15.215-34.672c5.973-8.08,13.431-14.566,22.126-17.26c-10.617,2.158-18.475,8.185-24.198,15.926
		C58.49,95.108,54.646,108.958,53.201,120.49z M52.499,130.734l3.499-0.001c0.118-11.54,4.411-24.599,13.001-34.073
		c7.144-7.879,17.252-13.281,30.394-13.281c13.131,0,23.208,5.394,30.317,13.262c8.564,9.477,12.822,22.544,12.939,34.092
		l3.281-0.001c-0.152-12.042-5.918-30.755-16.133-44.679c-7.748-10.56-18.057-18.355-30.405-18.355
		c-12.371,0-22.757,7.822-30.584,18.41C58.519,100.025,52.655,118.706,52.499,130.734z M58.195,130.733
		c0.024-3.582,0.317-7.549,0.937-11.668c0.442-2.938,1.051-5.955,1.848-8.966c-2.934,6.715-4.424,13.932-4.493,20.634H58.195z
		 M62.265,107.372c-1.204,3.926-2.071,7.912-2.65,11.766c-0.644,4.279-0.932,8.396-0.932,12.084h-0.49v-0.002h-1.709v0.002h-0.49
		v-0.002h-3.499v0.002h-0.489c0-12.549,3.35-32.694,13.945-47.028c7.297-9.87,18.022-16.985,33.441-16.985
		c15.399,0,26.057,7.096,33.284,16.944c10.518,14.335,13.748,34.505,13.748,47.065h-0.059h-0.43h-5.689h-0.43h-0.061
		c0-3.886-0.314-8.247-1.031-12.771c-0.635-4.029-1.592-8.194-2.926-12.273c-1.773-3.296-3.922-6.41-6.451-9.206
		c-7.023-7.772-16.979-13.099-29.956-13.099c-12.989,0-22.978,5.336-30.032,13.117C66.523,100.115,64.161,103.64,62.265,107.372z
		 M142.158,130.732c-0.072-7.148-1.744-14.883-5.059-21.969c0.916,3.214,1.609,6.451,2.107,9.609
		c0.691,4.369,1.012,8.58,1.037,12.359H142.158z"/>
	<path fill="none" stroke="#2B2A29" stroke-width="0.216" stroke-miterlimit="22.9256" d="M108.229,68.557
		c8.656,2.687,16.051,9.15,21.963,17.207c7.689,10.482,12.875,23.67,15.061,34.726c-1.408-11.547-5.17-25.418-12.971-36.049
		C126.615,76.718,118.813,70.709,108.229,68.557z M53.201,120.49c2.221-11.037,7.472-24.198,15.215-34.672
		c5.973-8.08,13.431-14.566,22.126-17.26c-10.617,2.158-18.475,8.185-24.198,15.926C58.49,95.108,54.646,108.958,53.201,120.49z
		 M52.499,130.734l3.499-0.001c0.118-11.54,4.411-24.599,13.001-34.073c7.144-7.879,17.252-13.281,30.394-13.281
		c13.131,0,23.208,5.394,30.317,13.262c8.564,9.477,12.822,22.544,12.939,34.092l3.281-0.001
		c-0.152-12.042-5.918-30.755-16.133-44.679c-7.748-10.56-18.057-18.355-30.405-18.355c-12.371,0-22.757,7.822-30.584,18.41
		C58.519,100.025,52.655,118.706,52.499,130.734z M58.195,130.733c0.024-3.582,0.317-7.549,0.937-11.668
		c0.442-2.938,1.051-5.955,1.848-8.966c-2.934,6.715-4.424,13.932-4.493,20.634H58.195z M62.265,107.372
		c-1.204,3.926-2.071,7.912-2.65,11.766c-0.644,4.279-0.932,8.396-0.932,12.084h-0.49v-0.002h-1.709v0.002h-0.49v-0.002h-3.499
		v0.002h-0.489c0-12.549,3.35-32.694,13.945-47.028c7.297-9.87,18.022-16.985,33.441-16.985c15.399,0,26.057,7.096,33.284,16.944
		c10.518,14.335,13.748,34.505,13.748,47.065h-0.059h-0.43h-5.689h-0.43h-0.061c0-3.886-0.314-8.247-1.031-12.771
		c-0.635-4.029-1.592-8.194-2.926-12.273c-1.773-3.296-3.922-6.41-6.451-9.206c-7.023-7.772-16.979-13.099-29.956-13.099
		c-12.989,0-22.978,5.336-30.032,13.117C66.523,100.115,64.161,103.64,62.265,107.372z M142.158,130.732
		c-0.072-7.148-1.744-14.883-5.059-21.969c0.916,3.214,1.609,6.451,2.107,9.609c0.691,4.369,1.012,8.58,1.037,12.359H142.158z"/>
</g>
</svg>
