<?xml version="1.0" encoding="utf-8"?>
<!-- Generator: Adobe Illustrator 16.0.0, SVG Export Plug-In . SVG Version: 6.00 Build 0)  -->
<!DOCTYPE svg PUBLIC "-//W3C//DTD SVG 1.0//EN" "http://www.w3.org/TR/2001/REC-SVG-20010904/DTD/svg10.dtd">
<svg version="1.0" id="Layer_1" xmlns="http://www.w3.org/2000/svg" xmlns:xlink="http://www.w3.org/1999/xlink" x="0px" y="0px"
	 width="198.43px" height="198.43px" viewBox="0 0 198.43 198.43" enable-background="new 0 0 198.43 198.43" xml:space="preserve">
<g>
	<polygon fill-rule="evenodd" clip-rule="evenodd" fill="#FFFFFF" points="64.664,85.929 93.799,95.38 93.785,64.751 	"/>
	<polygon fill="none" stroke="#2B2A29" stroke-width="0.7186" stroke-miterlimit="22.9256" points="64.664,85.929 93.799,95.38 
		93.785,64.751 	"/>
	<path fill-rule="evenodd" clip-rule="evenodd" fill="#FFFFFF" d="M64.731,85.95l29.068,9.43l5.422,7.456l-8.766,2.853
		l-29.068-9.431c-1.078-0.333-2.062-1.005-2.777-1.988c-1.759-2.42-1.225-5.81,1.196-7.569
		C61.282,85.626,63.121,85.407,64.731,85.95z"/>
	<path fill="none" stroke="#2B2A29" stroke-width="0.7186" stroke-miterlimit="22.9256" d="M64.731,85.95l29.068,9.43l5.422,7.456
		l-8.766,2.853l-29.068-9.431c-1.078-0.333-2.062-1.005-2.777-1.988c-1.759-2.42-1.225-5.81,1.196-7.569
		C61.282,85.626,63.121,85.407,64.731,85.95z"/>
	<path fill-rule="evenodd" clip-rule="evenodd" fill="#FFFFFF" d="M72.505,130.427l17.951-24.73l8.767-2.853l0.004,9.219
		l-17.951,24.729c-0.651,0.923-1.594,1.65-2.75,2.026c-2.845,0.927-5.903-0.631-6.829-3.476
		C71.131,133.606,71.491,131.789,72.505,130.427z"/>
	<path fill="none" stroke="#2B2A29" stroke-width="0.7186" stroke-miterlimit="22.9256" d="M72.505,130.427l17.951-24.73
		l8.767-2.853l0.004,9.219l-17.951,24.729c-0.651,0.923-1.594,1.65-2.75,2.026c-2.845,0.927-5.903-0.631-6.829-3.476
		C71.131,133.606,71.491,131.789,72.505,130.427z"/>
	<path fill-rule="evenodd" clip-rule="evenodd" fill="#FFFFFF" d="M117.194,136.779L99.22,112.065l-0.004-9.219l8.769,2.845
		l17.973,24.715c0.676,0.903,1.076,2.025,1.077,3.241c0.002,2.991-2.424,5.419-5.416,5.42
		C119.791,139.068,118.176,138.164,117.194,136.779z"/>
	<path fill="none" stroke="#2B2A29" stroke-width="0.7186" stroke-miterlimit="22.9256" d="M117.194,136.779L99.22,112.065
		l-0.004-9.219l8.769,2.845l17.973,24.715c0.676,0.903,1.076,2.025,1.077,3.241c0.002,2.991-2.424,5.419-5.416,5.42
		C119.791,139.068,118.176,138.164,117.194,136.779z"/>
	<path fill-rule="evenodd" clip-rule="evenodd" fill="#FFFFFF" d="M137.047,96.235l-29.059,9.456l-8.769-2.845l5.415-7.46
		l29.059-9.456c1.068-0.363,2.26-0.398,3.415-0.023c2.847,0.924,4.405,3.98,3.482,6.827
		C140.027,94.471,138.668,95.729,137.047,96.235z"/>
	<path fill="none" stroke="#2B2A29" stroke-width="0.7186" stroke-miterlimit="22.9256" d="M137.047,96.235l-29.059,9.456
		l-8.769-2.845l5.415-7.46l29.059-9.456c1.068-0.363,2.26-0.398,3.415-0.023c2.847,0.924,4.405,3.98,3.482,6.827
		C140.027,94.471,138.668,95.729,137.047,96.235z"/>
	<path fill-rule="evenodd" clip-rule="evenodd" fill="#FFFFFF" d="M104.621,64.828l0.021,30.559l-5.413,7.462l-5.424-7.454
		l-0.021-30.559c-0.016-1.129,0.319-2.272,1.033-3.256c1.757-2.422,5.146-2.961,7.567-1.204
		C103.864,61.449,104.64,63.13,104.621,64.828z"/>
	<path fill="none" stroke="#2B2A29" stroke-width="0.7186" stroke-miterlimit="22.9256" d="M104.621,64.828l0.021,30.559
		l-5.413,7.462l-5.424-7.454l-0.021-30.559c-0.016-1.129,0.319-2.272,1.033-3.256c1.757-2.422,5.146-2.961,7.567-1.204
		C103.864,61.449,104.64,63.13,104.621,64.828z"/>
	
		<line fill="none" stroke="#2B2A29" stroke-width="0.7186" stroke-miterlimit="22.9256" x1="104.62" y1="64.749" x2="133.76" y2="85.901"/>
	
		<line fill="none" stroke="#2B2A29" stroke-width="0.7186" stroke-miterlimit="22.9256" x1="64.664" y1="85.929" x2="93.785" y2="64.751"/>
	
		<line fill="none" stroke="#2B2A29" stroke-width="0.7186" stroke-miterlimit="22.9256" x1="72.464" y1="130.484" x2="61.323" y2="96.243"/>
	
		<line fill="none" stroke="#2B2A29" stroke-width="0.7186" stroke-miterlimit="22.9256" x1="117.234" y1="136.835" x2="81.228" y2="136.851"/>
	
		<line fill="none" stroke="#2B2A29" stroke-width="0.7186" stroke-miterlimit="22.9256" x1="137.114" y1="96.214" x2="126.001" y2="130.462"/>
	<polygon fill-rule="evenodd" clip-rule="evenodd" fill="#FFFFFF" points="104.62,64.749 104.634,95.378 133.76,85.901 	"/>
	<polygon fill="none" stroke="#2B2A29" stroke-width="0.7186" stroke-miterlimit="22.9256" points="104.62,64.749 104.634,95.378 
		133.76,85.901 	"/>
	<polygon fill-rule="evenodd" clip-rule="evenodd" fill="#FFFFFF" points="72.464,130.484 90.456,105.697 61.323,96.243 	"/>
	<polygon fill="none" stroke="#2B2A29" stroke-width="0.7186" stroke-miterlimit="22.9256" points="72.464,130.484 90.456,105.697 
		61.323,96.243 	"/>
	<polygon fill-rule="evenodd" clip-rule="evenodd" fill="#FFFFFF" points="117.234,136.835 99.22,112.065 81.228,136.851 	"/>
	<polygon fill="none" stroke="#2B2A29" stroke-width="0.7186" stroke-miterlimit="22.9256" points="117.234,136.835 99.22,112.065 
		81.228,136.851 	"/>
	<polygon fill-rule="evenodd" clip-rule="evenodd" fill="#FFFFFF" points="137.114,96.214 107.989,105.691 126.001,130.462 	"/>
	<polygon fill="none" stroke="#2B2A29" stroke-width="0.7186" stroke-miterlimit="22.9256" points="137.114,96.214 107.989,105.691 
		126.001,130.462 	"/>
	<path fill-rule="evenodd" clip-rule="evenodd" fill="#FFFFFF" d="M104.622,68.521v-0.209c0.002-2.699-2.429-4.887-5.421-4.886
		c-2.992,0.002-5.418,2.191-5.416,4.891c0,0.069,0,0.139,0,0.209l0,0l0.012,26.857l5.422,7.455l5.415-7.46l-0.012-26.742l0,0
		c0.002-0.001,0-0.006,0-0.009V68.521z"/>
	<path fill="none" stroke="#2B2A29" stroke-width="0.7186" stroke-miterlimit="22.9256" d="M104.622,68.521v-0.209
		c0.002-2.699-2.429-4.887-5.421-4.886c-2.992,0.002-5.418,2.191-5.416,4.891c0,0.069,0,0.139,0,0.209l0,0l0.012,26.857l5.422,7.455
		l5.415-7.46l-0.012-26.742l0,0c0.002-0.001,0-0.006,0-0.009V68.521z"/>
	<path fill-rule="evenodd" clip-rule="evenodd" fill="#FFFFFF" d="M68.251,87.093l-0.198-0.064c-2.566-0.837-5.397,0.8-6.321,3.646
		c-0.923,2.846,0.41,5.829,2.978,6.662c0.066,0.021,0.132,0.043,0.198,0.064l0,0l25.548,8.288l8.766-2.853l-5.422-7.456
		l-25.437-8.252l0,0c-0.001-0.003-0.006-0.002-0.009-0.002L68.251,87.093z"/>
	<path fill="none" stroke="#2B2A29" stroke-width="0.7186" stroke-miterlimit="22.9256" d="M68.251,87.093l-0.198-0.064
		c-2.566-0.837-5.397,0.8-6.321,3.646c-0.923,2.846,0.41,5.829,2.978,6.662c0.066,0.021,0.132,0.043,0.198,0.064l0,0l25.548,8.288
		l8.766-2.853l-5.422-7.456l-25.437-8.252l0,0c-0.001-0.003-0.006-0.002-0.009-0.002L68.251,87.093z"/>
	<path fill-rule="evenodd" clip-rule="evenodd" fill="#FFFFFF" d="M74.68,127.432l-0.123,0.169
		c-1.589,2.182-0.908,5.381,1.514,7.138c2.421,1.758,5.671,1.412,7.256-0.772c0.041-0.057,0.082-0.112,0.123-0.169v0.001
		l15.777-21.735l-0.004-9.219l-8.767,2.853l-15.708,21.641h-0.001c-0.003,0-0.003,0.005-0.005,0.008L74.68,127.432z"/>
	<path fill="none" stroke="#2B2A29" stroke-width="0.7186" stroke-miterlimit="22.9256" d="M74.68,127.432l-0.123,0.169
		c-1.589,2.182-0.908,5.381,1.514,7.138c2.421,1.758,5.671,1.412,7.256-0.772c0.041-0.057,0.082-0.112,0.123-0.169v0.001
		l15.777-21.735l-0.004-9.219l-8.767,2.853l-15.708,21.641h-0.001c-0.003,0-0.003,0.005-0.005,0.008L74.68,127.432z"/>
	<path fill-rule="evenodd" clip-rule="evenodd" fill="#FFFFFF" d="M115.016,133.785l0.123,0.169
		c1.585,2.185,4.837,2.526,7.257,0.767s3.095-4.957,1.507-7.14c-0.041-0.057-0.081-0.113-0.122-0.169v-0.001l-15.796-21.721
		l-8.769-2.845l0.004,9.219l15.728,21.627l0,0c-0.001,0.003,0.004,0.005,0.006,0.007L115.016,133.785L115.016,133.785z"/>
	<path fill="none" stroke="#2B2A29" stroke-width="0.7186" stroke-miterlimit="22.9256" d="M115.016,133.785l0.123,0.169
		c1.585,2.185,4.837,2.526,7.257,0.767s3.095-4.957,1.507-7.14c-0.041-0.057-0.081-0.113-0.122-0.169v-0.001l-15.796-21.721
		l-8.769-2.845l0.004,9.219l15.728,21.627l0,0c-0.001,0.003,0.004,0.005,0.006,0.007L115.016,133.785L115.016,133.785z"/>
	<path fill-rule="evenodd" clip-rule="evenodd" fill="#FFFFFF" d="M133.527,97.38l0.199-0.064c2.567-0.832,3.897-3.819,2.971-6.664
		c-0.925-2.846-3.757-4.476-6.323-3.641c-0.066,0.021-0.133,0.043-0.199,0.064l0,0l-25.539,8.311l-5.415,7.46l8.769,2.845
		l25.429-8.274l0,0c0.002,0.003,0.005-0.002,0.008-0.003L133.527,97.38z"/>
	<path fill="none" stroke="#2B2A29" stroke-width="0.7186" stroke-miterlimit="22.9256" d="M133.527,97.38l0.199-0.064
		c2.567-0.832,3.897-3.819,2.971-6.664c-0.925-2.846-3.757-4.476-6.323-3.641c-0.066,0.021-0.133,0.043-0.199,0.064l0,0
		l-25.539,8.311l-5.415,7.46l8.769,2.845l25.429-8.274l0,0c0.002,0.003,0.005-0.002,0.008-0.003L133.527,97.38z"/>
	<path fill-rule="evenodd" clip-rule="evenodd" fill="#FFFFFF" d="M104.624,74.972c0-0.069-0.006-0.137-0.018-0.204
		c-0.229-1.992-2.561-3.558-5.402-3.557c-2.839,0.001-5.168,1.566-5.397,3.557c-0.013,0.068-0.019,0.139-0.019,0.209h-0.001
		l0.01,20.406l5.422,7.455l5.415-7.46l-0.009-20.29c0-0.004,0-0.007,0-0.01L104.624,74.972z"/>
	<path fill="none" stroke="#2B2A29" stroke-width="0.7186" stroke-miterlimit="22.9256" d="M104.624,74.972
		c0-0.069-0.006-0.137-0.018-0.204c-0.229-1.992-2.561-3.558-5.402-3.557c-2.839,0.001-5.168,1.566-5.397,3.557
		c-0.013,0.068-0.019,0.139-0.019,0.209h-0.001l0.01,20.406l5.422,7.455l5.415-7.46l-0.009-20.29c0-0.004,0-0.007,0-0.01
		L104.624,74.972z"/>
	<path fill-rule="evenodd" clip-rule="evenodd" fill="#FFFFFF" d="M74.388,89.083c-0.065-0.021-0.132-0.036-0.199-0.045
		c-1.966-0.398-4.175,1.335-5.052,4.038c-0.876,2.7-0.107,5.399,1.715,6.232c0.062,0.033,0.125,0.061,0.192,0.083l0,0l19.411,6.297
		l8.766-2.853l-5.422-7.456l-19.3-6.261h-0.001c-0.002-0.001-0.005-0.002-0.008-0.003L74.388,89.083z"/>
	<path fill="none" stroke="#2B2A29" stroke-width="0.7186" stroke-miterlimit="22.9256" d="M74.388,89.083
		c-0.065-0.021-0.132-0.036-0.199-0.045c-1.966-0.398-4.175,1.335-5.052,4.038c-0.876,2.7-0.107,5.399,1.715,6.232
		c0.062,0.033,0.125,0.061,0.192,0.083l0,0l19.411,6.297l8.766-2.853l-5.422-7.456l-19.3-6.261h-0.001
		c-0.002-0.001-0.005-0.002-0.008-0.003L74.388,89.083z"/>
	<path fill-rule="evenodd" clip-rule="evenodd" fill="#FFFFFF" d="M78.469,122.211c-0.04,0.056-0.075,0.114-0.104,0.176
		c-0.986,1.746-0.021,4.383,2.279,6.052c2.298,1.668,5.102,1.771,6.457,0.296c0.051-0.049,0.098-0.101,0.139-0.158l11.987-16.514
		l-0.004-9.219l-8.767,2.853l-11.919,16.42l0,0c-0.002,0.003-0.004,0.005-0.005,0.008L78.469,122.211L78.469,122.211z"/>
	<path fill="none" stroke="#2B2A29" stroke-width="0.7186" stroke-miterlimit="22.9256" d="M78.469,122.211
		c-0.04,0.056-0.075,0.114-0.104,0.176c-0.986,1.746-0.021,4.383,2.279,6.052c2.298,1.668,5.102,1.771,6.457,0.296
		c0.051-0.049,0.098-0.101,0.139-0.158l11.987-16.514l-0.004-9.219l-8.767,2.853l-11.919,16.42l0,0
		c-0.002,0.003-0.004,0.005-0.005,0.008L78.469,122.211L78.469,122.211z"/>
	<path fill-rule="evenodd" clip-rule="evenodd" fill="#FFFFFF" d="M111.222,128.568c0.04,0.056,0.086,0.107,0.135,0.155
		c1.355,1.477,4.162,1.373,6.46-0.299c2.296-1.669,3.261-4.305,2.276-6.049c-0.03-0.063-0.065-0.124-0.107-0.181h0.001
		l-12.002-16.504l-8.769-2.845l0.004,9.219l11.934,16.409c0.002,0.003,0.004,0.005,0.005,0.008L111.222,128.568z"/>
	<path fill="none" stroke="#2B2A29" stroke-width="0.7186" stroke-miterlimit="22.9256" d="M111.222,128.568
		c0.04,0.056,0.086,0.107,0.135,0.155c1.355,1.477,4.162,1.373,6.46-0.299c2.296-1.669,3.261-4.305,2.276-6.049
		c-0.03-0.063-0.065-0.124-0.107-0.181h0.001l-12.002-16.504l-8.769-2.845l0.004,9.219l11.934,16.409
		c0.002,0.003,0.004,0.005,0.005,0.008L111.222,128.568z"/>
	<path fill-rule="evenodd" clip-rule="evenodd" fill="#FFFFFF" d="M127.393,99.376c0.065-0.021,0.128-0.048,0.188-0.08
		c1.824-0.833,2.593-3.534,1.713-6.236c-0.878-2.7-3.087-4.431-5.05-4.034c-0.069,0.009-0.138,0.024-0.205,0.046l0,0l-19.404,6.314
		l-5.415,7.46l8.769,2.845l19.294-6.278l0,0c0.003-0.001,0.006-0.002,0.008-0.003L127.393,99.376z"/>
	<path fill="none" stroke="#2B2A29" stroke-width="0.7186" stroke-miterlimit="22.9256" d="M127.393,99.376
		c0.065-0.021,0.128-0.048,0.188-0.08c1.824-0.833,2.593-3.534,1.713-6.236c-0.878-2.7-3.087-4.431-5.05-4.034
		c-0.069,0.009-0.138,0.024-0.205,0.046l0,0l-19.404,6.314l-5.415,7.46l8.769,2.845l19.294-6.278l0,0
		c0.003-0.001,0.006-0.002,0.008-0.003L127.393,99.376z"/>
	<path fill-rule="evenodd" clip-rule="evenodd" fill="#FFFFFF" d="M104.629,84.414c0-1.375-2.428-2.489-5.42-2.488
		c-2.991,0.002-5.417,1.118-5.417,2.493l0,0l0.005,10.964l5.422,7.455l5.415-7.46L104.629,84.414z"/>
	<path fill="none" stroke="#2B2A29" stroke-width="0.7186" stroke-miterlimit="22.9256" d="M104.629,84.414
		c0-1.375-2.428-2.489-5.42-2.488c-2.991,0.002-5.417,1.118-5.417,2.493l0,0l0.005,10.964l5.422,7.455l5.415-7.46L104.629,84.414z"
		/>
	<path fill-rule="evenodd" clip-rule="evenodd" fill="#FFFFFF" d="M83.37,91.997c-1.309-0.425-3.117,1.539-4.041,4.386
		c-0.924,2.846-0.611,5.498,0.697,5.922l10.429,3.384l8.766-2.853l-5.422-7.456L83.37,91.997z"/>
	<path fill="none" stroke="#2B2A29" stroke-width="0.7186" stroke-miterlimit="22.9256" d="M83.37,91.997
		c-1.309-0.425-3.117,1.539-4.041,4.386c-0.924,2.846-0.611,5.498,0.697,5.922l10.429,3.384l8.766-2.853l-5.422-7.456L83.37,91.997z
		"/>
	<path fill-rule="evenodd" clip-rule="evenodd" fill="#FFFFFF" d="M84.017,114.569c-0.809,1.113,0.5,3.441,2.921,5.199
		c2.422,1.757,5.04,2.28,5.849,1.167l0,0l6.44-8.872l-0.004-9.219l-8.767,2.853L84.017,114.569L84.017,114.569z"/>
	<path fill="none" stroke="#2B2A29" stroke-width="0.7186" stroke-miterlimit="22.9256" d="M84.017,114.569
		c-0.809,1.113,0.5,3.441,2.921,5.199c2.422,1.757,5.04,2.28,5.849,1.167l0,0l6.44-8.872l-0.004-9.219l-8.767,2.853L84.017,114.569
		L84.017,114.569z"/>
	<path fill-rule="evenodd" clip-rule="evenodd" fill="#FFFFFF" d="M105.668,120.931c0.81,1.113,3.428,0.588,5.847-1.172
		c2.42-1.76,3.727-4.089,2.918-5.201l-6.448-8.867l-8.769-2.845l0.004,9.219L105.668,120.931L105.668,120.931z"/>
	<path fill="none" stroke="#2B2A29" stroke-width="0.7186" stroke-miterlimit="22.9256" d="M105.668,120.931
		c0.81,1.113,3.428,0.588,5.847-1.172c2.42-1.76,3.727-4.089,2.918-5.201l-6.448-8.867l-8.769-2.845l0.004,9.219L105.668,120.931
		L105.668,120.931z"/>
	<path fill-rule="evenodd" clip-rule="evenodd" fill="#FFFFFF" d="M118.413,102.298c1.308-0.426,1.618-3.078,0.692-5.923
		s-2.737-4.807-4.045-4.382l-10.426,3.393l-5.415,7.46l8.769,2.845L118.413,102.298z"/>
	<path fill="none" stroke="#2B2A29" stroke-width="0.7186" stroke-miterlimit="22.9256" d="M118.413,102.298
		c1.308-0.426,1.618-3.078,0.692-5.923s-2.737-4.807-4.045-4.382l-10.426,3.393l-5.415,7.46l8.769,2.845L118.413,102.298z"/>
	<path fill-rule="evenodd" clip-rule="evenodd" fill="#FFFFFF" d="M104.634,95.378c0-0.474-2.427-0.857-5.419-0.855
		c-2.991,0.001-5.418,0.387-5.418,0.86l5.422,7.455L104.634,95.378z"/>
	<path fill="none" stroke="#2B2A29" stroke-width="0.7186" stroke-miterlimit="22.9256" d="M104.634,95.378
		c0-0.474-2.427-0.857-5.419-0.855c-2.991,0.001-5.418,0.387-5.418,0.86l5.422,7.455L104.634,95.378z"/>
	<path fill-rule="evenodd" clip-rule="evenodd" fill="#FFFFFF" d="M93.799,95.38c-0.45-0.146-1.564,2.043-2.488,4.89
		c-0.923,2.846-1.307,5.272-0.855,5.419l8.766-2.853L93.799,95.38z"/>
	<path fill="none" stroke="#2B2A29" stroke-width="0.7186" stroke-miterlimit="22.9256" d="M93.799,95.38
		c-0.45-0.146-1.564,2.043-2.488,4.89c-0.923,2.846-1.307,5.272-0.855,5.419l8.766-2.853L93.799,95.38z"/>
	<path fill-rule="evenodd" clip-rule="evenodd" fill="#FFFFFF" d="M90.456,105.697c-0.278,0.383,1.46,2.119,3.881,3.877
		c2.422,1.758,4.611,2.872,4.89,2.489l-0.004-9.219L90.456,105.697z"/>
	<path fill="none" stroke="#2B2A29" stroke-width="0.7186" stroke-miterlimit="22.9256" d="M90.456,105.697
		c-0.278,0.383,1.46,2.119,3.881,3.877c2.422,1.758,4.611,2.872,4.89,2.489l-0.004-9.219L90.456,105.697z"/>
	<path fill-rule="evenodd" clip-rule="evenodd" fill="#FFFFFF" d="M99.22,112.065c0.279,0.383,2.468-0.733,4.887-2.492
		c2.42-1.76,4.156-3.498,3.878-3.882l-8.769-2.845L99.22,112.065z"/>
	<path fill="none" stroke="#2B2A29" stroke-width="0.7186" stroke-miterlimit="22.9256" d="M99.22,112.065
		c0.279,0.383,2.468-0.733,4.887-2.492c2.42-1.76,4.156-3.498,3.878-3.882l-8.769-2.845L99.22,112.065z"/>
	<path fill-rule="evenodd" clip-rule="evenodd" fill="#FFFFFF" d="M107.989,105.691c0.45-0.146,0.064-2.572-0.861-5.418
		c-0.926-2.845-2.042-5.033-2.492-4.887l-5.415,7.46L107.989,105.691z"/>
	<path fill="none" stroke="#2B2A29" stroke-width="0.7186" stroke-miterlimit="22.9256" d="M107.989,105.691
		c0.45-0.146,0.064-2.572-0.861-5.418c-0.926-2.845-2.042-5.033-2.492-4.887l-5.415,7.46L107.989,105.691z"/>
</g>
</svg>
