<?xml version="1.0" encoding="utf-8"?>
<!-- Generator: Adobe Illustrator 16.0.0, SVG Export Plug-In . SVG Version: 6.00 Build 0)  -->
<!DOCTYPE svg PUBLIC "-//W3C//DTD SVG 1.0//EN" "http://www.w3.org/TR/2001/REC-SVG-20010904/DTD/svg10.dtd">
<svg version="1.0" id="Layer_1" xmlns="http://www.w3.org/2000/svg" xmlns:xlink="http://www.w3.org/1999/xlink" x="0px" y="0px"
	 width="198.43px" height="198.43px" viewBox="0 0 198.43 198.43" enable-background="new 0 0 198.43 198.43" xml:space="preserve">
<g>
	<path fill-rule="evenodd" clip-rule="evenodd" fill="#FFFFFF" d="M74.693,53.708l0.017,0.04c0.011,0.025,0.021,0.051,0.032,0.076
		l14.779,35.673l-0.01-0.01L53.838,74.607l0,0c-1.926-0.803-4.229-0.421-5.795,1.146c-2.071,2.071-2.071,5.43,0,7.501
		c0.49,0.491,1.053,0.865,1.653,1.123l0.041,0.017c0.024,0.011,0.05,0.021,0.075,0.032l35.676,14.773h-0.014l-35.747,14.702h0.001
		c-1.93,0.794-3.289,2.692-3.289,4.908c0,2.929,2.375,5.304,5.305,5.304c0.694,0,1.356-0.133,1.964-0.375l0,0l0.04-0.017
		c0.025-0.011,0.051-0.021,0.076-0.031l35.673-14.78l-0.01,0.01l-14.881,35.673h0.001c-0.804,1.926-0.422,4.229,1.145,5.795
		c2.071,2.072,5.43,2.072,7.502,0c0.49-0.49,0.864-1.053,1.122-1.654h0.001l0.016-0.039c0.011-0.025,0.021-0.051,0.032-0.076
		l14.773-35.676v0.014l14.702,35.746l0,0c0.794,1.93,2.692,3.289,4.907,3.289c2.93,0,5.305-2.375,5.305-5.305
		c0-0.693-0.133-1.356-0.375-1.964l0,0l-0.017-0.04c-0.011-0.025-0.021-0.051-0.031-0.076l-14.78-35.673l0.01,0.01l35.673,14.881
		l0,0c1.926,0.803,4.229,0.422,5.795-1.146c2.071-2.071,2.071-5.43,0-7.501c-0.49-0.491-1.053-0.865-1.653-1.123l0,0l-0.04-0.017
		c-0.025-0.011-0.051-0.021-0.076-0.031l-35.676-14.774h0.014l35.747-14.702l0,0c1.929-0.794,3.288-2.692,3.288-4.908
		c0-2.929-2.375-5.304-5.305-5.304c-0.693,0-1.356,0.133-1.963,0.375l0,0l-0.041,0.017c-0.025,0.011-0.051,0.021-0.075,0.032
		l-35.674,14.779l0.011-0.01l14.88-35.673l0,0c0.803-1.926,0.422-4.229-1.146-5.795c-2.071-2.071-5.43-2.071-7.501,0
		c-0.491,0.49-0.865,1.053-1.123,1.653l0,0l-0.017,0.04c-0.011,0.025-0.021,0.051-0.032,0.076L99.232,85.489v-0.014L84.53,49.728
		l0,0c-0.794-1.929-2.692-3.288-4.907-3.288c-2.93,0-5.305,2.375-5.305,5.305C74.318,52.438,74.451,53.101,74.693,53.708z"/>
	<path fill="none" stroke="#2B2A29" stroke-width="0.5102" stroke-miterlimit="22.9256" d="M74.693,53.708l0.017,0.04
		c0.011,0.025,0.021,0.051,0.032,0.076l14.779,35.673l-0.01-0.01L53.838,74.607l0,0c-1.926-0.803-4.229-0.421-5.795,1.146
		c-2.071,2.071-2.071,5.43,0,7.501c0.49,0.491,1.053,0.865,1.653,1.123l0.041,0.017c0.024,0.011,0.05,0.021,0.075,0.032
		l35.676,14.773h-0.014l-35.747,14.702h0.001c-1.93,0.794-3.289,2.692-3.289,4.908c0,2.929,2.375,5.304,5.305,5.304
		c0.694,0,1.356-0.133,1.964-0.375l0,0l0.04-0.017c0.025-0.011,0.051-0.021,0.076-0.031l35.673-14.78l-0.01,0.01l-14.881,35.673
		h0.001c-0.804,1.926-0.422,4.229,1.145,5.795c2.071,2.072,5.43,2.072,7.502,0c0.49-0.49,0.864-1.053,1.122-1.654h0.001l0.016-0.039
		c0.011-0.025,0.021-0.051,0.032-0.076l14.773-35.676v0.014l14.702,35.746l0,0c0.794,1.93,2.692,3.289,4.907,3.289
		c2.93,0,5.305-2.375,5.305-5.305c0-0.693-0.133-1.356-0.375-1.964l0,0l-0.017-0.04c-0.011-0.025-0.021-0.051-0.031-0.076
		l-14.78-35.673l0.01,0.01l35.673,14.881l0,0c1.926,0.803,4.229,0.422,5.795-1.146c2.071-2.071,2.071-5.43,0-7.501
		c-0.49-0.491-1.053-0.865-1.653-1.123l0,0l-0.04-0.017c-0.025-0.011-0.051-0.021-0.076-0.031l-35.676-14.774h0.014l35.747-14.702
		l0,0c1.929-0.794,3.288-2.692,3.288-4.908c0-2.929-2.375-5.304-5.305-5.304c-0.693,0-1.356,0.133-1.963,0.375l0,0l-0.041,0.017
		c-0.025,0.011-0.051,0.021-0.075,0.032l-35.674,14.779l0.011-0.01l14.88-35.673l0,0c0.803-1.926,0.422-4.229-1.146-5.795
		c-2.071-2.071-5.43-2.071-7.501,0c-0.491,0.49-0.865,1.053-1.123,1.653l0,0l-0.017,0.04c-0.011,0.025-0.021,0.051-0.032,0.076
		L99.232,85.489v-0.014L84.53,49.728l0,0c-0.794-1.929-2.692-3.288-4.907-3.288c-2.93,0-5.305,2.375-5.305,5.305
		C74.318,52.438,74.451,53.101,74.693,53.708z"/>
	<polyline fill="none" stroke="#2B2A29" stroke-width="0.5102" stroke-miterlimit="22.9256" points="85.475,99.198 99.215,99.215 
		89.521,89.497 	"/>
	<polyline fill="none" stroke="#2B2A29" stroke-width="0.5102" stroke-miterlimit="22.9256" points="99.198,112.955 99.215,99.215 
		89.497,108.909 	"/>
	<polyline fill="none" stroke="#2B2A29" stroke-width="0.5102" stroke-miterlimit="22.9256" points="112.942,99.232 99.215,99.215 
		108.909,108.933 	"/>
	<polyline fill="none" stroke="#2B2A29" stroke-width="0.5102" stroke-miterlimit="22.9256" points="99.232,85.475 99.215,99.215 
		108.944,89.511 	"/>
	<polygon fill-rule="evenodd" clip-rule="evenodd" fill="#FCFDFF" points="123.823,53.838 144.723,74.693 108.944,89.511 	"/>
	<polygon fill="none" stroke="#2B2A29" stroke-width="0.5102" stroke-miterlimit="22.9256" points="123.823,53.838 144.723,74.693 
		108.944,89.511 	"/>
	<polygon fill-rule="evenodd" clip-rule="evenodd" fill="#FCFDFF" points="112.955,99.232 148.702,84.53 148.734,114.054 	"/>
	<polygon fill="none" stroke="#2B2A29" stroke-width="0.5102" stroke-miterlimit="22.9256" points="112.955,99.232 148.702,84.53 
		148.734,114.054 	"/>
	<polygon fill-rule="evenodd" clip-rule="evenodd" fill="#FCFDFF" points="108.919,108.943 144.592,123.823 123.69,144.606 	"/>
	<polygon fill="none" stroke="#2B2A29" stroke-width="0.5102" stroke-miterlimit="22.9256" points="108.919,108.943 
		144.592,123.823 123.69,144.606 	"/>
	<polygon fill-rule="evenodd" clip-rule="evenodd" fill="#FFFFFF" points="99.198,112.955 113.901,148.701 84.377,148.733 	"/>
	<polygon fill="none" stroke="#2B2A29" stroke-width="0.5102" stroke-miterlimit="22.9256" points="99.198,112.955 113.901,148.701 
		84.377,148.733 	"/>
	<polygon fill-rule="evenodd" clip-rule="evenodd" fill="#FCFDFF" points="89.488,108.919 74.608,144.592 53.824,123.69 	"/>
	<polygon fill="none" stroke="#2B2A29" stroke-width="0.5102" stroke-miterlimit="22.9256" points="89.488,108.919 74.608,144.592 
		53.824,123.69 	"/>
	<polygon fill-rule="evenodd" clip-rule="evenodd" fill="#FCFDFF" points="85.475,99.198 49.697,84.376 49.728,113.901 	"/>
	<polygon fill="none" stroke="#2B2A29" stroke-width="0.5102" stroke-miterlimit="22.9256" points="85.475,99.198 49.697,84.376 
		49.728,113.901 	"/>
	<polygon fill-rule="evenodd" clip-rule="evenodd" fill="#FCFDFF" points="89.511,89.488 74.693,53.708 53.838,74.607 	"/>
	<polygon fill="none" stroke="#2B2A29" stroke-width="0.5102" stroke-miterlimit="22.9256" points="89.511,89.488 74.693,53.708 
		53.838,74.607 	"/>
	<polygon fill-rule="evenodd" clip-rule="evenodd" fill="#FCFDFF" points="84.53,49.728 99.232,85.489 114.054,49.697 	"/>
	<polygon fill="none" stroke="#2B2A29" stroke-width="0.5102" stroke-miterlimit="22.9256" points="84.53,49.728 99.232,85.489 
		114.054,49.697 	"/>
	<path fill="none" stroke="#2B2A29" stroke-width="0.5102" stroke-miterlimit="22.9256" d="M86.789,82.904
		c0,0,1.808-5.53,9.586-4.374"/>
	<path fill="none" stroke="#2B2A29" stroke-width="0.5102" stroke-miterlimit="22.9256" d="M101.962,78.895
		c0,0,5.189-2.633,9.872,3.686"/>
	<path fill="none" stroke="#2B2A29" stroke-width="0.5102" stroke-miterlimit="22.9256" d="M115.527,86.789
		c0,0,5.53,1.808,4.374,9.586"/>
	<path fill="none" stroke="#2B2A29" stroke-width="0.5102" stroke-miterlimit="22.9256" d="M119.535,101.963
		c0,0,2.633,5.188-3.686,9.871"/>
	<path fill="none" stroke="#2B2A29" stroke-width="0.5102" stroke-miterlimit="22.9256" d="M111.641,115.527
		c0,0-1.808,5.53-9.586,4.374"/>
	<path fill="none" stroke="#2B2A29" stroke-width="0.5102" stroke-miterlimit="22.9256" d="M96.468,119.535
		c0,0-5.189,2.633-9.872-3.686"/>
	<path fill="none" stroke="#2B2A29" stroke-width="0.5102" stroke-miterlimit="22.9256" d="M82.904,111.641
		c0,0-5.53-1.808-4.374-9.586"/>
	<path fill="none" stroke="#2B2A29" stroke-width="0.5102" stroke-miterlimit="22.9256" d="M78.895,96.468
		c0,0-2.633-5.189,3.686-9.872"/>
	<path fill="none" stroke="#2B2A29" stroke-width="0.5102" stroke-miterlimit="22.9256" d="M81.89,70.997
		c0,0,1.808-5.53,9.586-4.374"/>
	<path fill="none" stroke="#2B2A29" stroke-width="0.5102" stroke-miterlimit="22.9256" d="M106.917,67.011
		c0,0,5.188-2.633,9.871,3.686"/>
	<path fill="none" stroke="#2B2A29" stroke-width="0.5102" stroke-miterlimit="22.9256" d="M127.433,81.889
		c0,0,5.53,1.809,4.374,9.587"/>
	<path fill="none" stroke="#2B2A29" stroke-width="0.5102" stroke-miterlimit="22.9256" d="M131.419,106.917
		c0,0,2.633,5.188-3.686,9.871"/>
	<path fill="none" stroke="#2B2A29" stroke-width="0.5102" stroke-miterlimit="22.9256" d="M116.541,127.433
		c0,0-1.808,5.53-9.587,4.374"/>
	<path fill="none" stroke="#2B2A29" stroke-width="0.5102" stroke-miterlimit="22.9256" d="M91.513,131.419
		c0,0-5.188,2.633-9.871-3.686"/>
	<path fill="none" stroke="#2B2A29" stroke-width="0.5102" stroke-miterlimit="22.9256" d="M70.997,116.541
		c0,0-5.53-1.809-4.374-9.587"/>
	<path fill="none" stroke="#2B2A29" stroke-width="0.5102" stroke-miterlimit="22.9256" d="M67.011,91.513
		c0,0-2.633-5.188,3.686-9.871"/>
	<path fill="none" stroke="#2B2A29" stroke-width="0.5102" stroke-miterlimit="22.9256" d="M77.98,61.484
		c0,0,0.781-2.93,3.816-4.192c1.396-0.581,3.319-0.546,5.77-0.182"/>
	<path fill="none" stroke="#2B2A29" stroke-width="0.5102" stroke-miterlimit="22.9256" d="M110.879,57.519
		c0,0,2.624-1.519,5.663-0.266c1.397,0.576,2.733,1.962,4.208,3.952"/>
	<path fill="none" stroke="#2B2A29" stroke-width="0.5102" stroke-miterlimit="22.9256" d="M136.947,77.98
		c0,0,2.93,0.781,4.192,3.816c0.581,1.396,0.546,3.319,0.182,5.77"/>
	<path fill="none" stroke="#2B2A29" stroke-width="0.5102" stroke-miterlimit="22.9256" d="M140.911,110.879
		c0,0,1.519,2.624,0.266,5.663c-0.576,1.397-1.961,2.733-3.951,4.208"/>
	<path fill="none" stroke="#2B2A29" stroke-width="0.5102" stroke-miterlimit="22.9256" d="M120.451,136.947
		c0,0-0.782,2.93-3.817,4.192c-1.395,0.58-3.319,0.545-5.77,0.182"/>
	<path fill="none" stroke="#2B2A29" stroke-width="0.5102" stroke-miterlimit="22.9256" d="M87.551,140.911
		c0,0-2.624,1.519-5.663,0.265c-1.397-0.575-2.733-1.961-4.208-3.95"/>
	<path fill="none" stroke="#2B2A29" stroke-width="0.5102" stroke-miterlimit="22.9256" d="M61.484,120.451
		c0,0-2.929-0.782-4.192-3.817c-0.581-1.396-0.546-3.319-0.182-5.77"/>
	<path fill="none" stroke="#2B2A29" stroke-width="0.5102" stroke-miterlimit="22.9256" d="M57.519,87.551
		c0,0-1.519-2.624-0.266-5.663c0.576-1.397,1.962-2.733,3.952-4.208"/>
	<path fill="none" stroke="#2B2A29" stroke-width="0.5102" stroke-miterlimit="22.9256" d="M75.149,54.809
		c0,0,0.438-3.167,3.843-4.531c2.031-0.814,3.336-0.31,5.786,0.055"/>
	<path fill="none" stroke="#2B2A29" stroke-width="0.5102" stroke-miterlimit="22.9256" d="M113.598,50.797
		c0,0,2.548-1.93,5.921-0.486c2.012,0.86,2.578,2.14,4.053,4.13"/>
	<path fill="none" stroke="#2B2A29" stroke-width="0.5102" stroke-miterlimit="22.9256" d="M143.622,75.149
		c0,0,3.166,0.438,4.53,3.843c0.814,2.031,0.31,3.336-0.055,5.786"/>
	<path fill="none" stroke="#2B2A29" stroke-width="0.5102" stroke-miterlimit="22.9256" d="M147.633,113.598
		c0,0,1.931,2.548,0.486,5.921c-0.86,2.012-2.14,2.578-4.13,4.054"/>
	<path fill="none" stroke="#2B2A29" stroke-width="0.5102" stroke-miterlimit="22.9256" d="M123.281,143.621
		c0,0-0.437,3.167-3.843,4.531c-2.031,0.813-3.336,0.31-5.786-0.055"/>
	<path fill="none" stroke="#2B2A29" stroke-width="0.5102" stroke-miterlimit="22.9256" d="M84.832,147.633
		c0,0-2.548,1.93-5.921,0.486c-2.012-0.861-2.578-2.141-4.053-4.131"/>
	<path fill="none" stroke="#2B2A29" stroke-width="0.5102" stroke-miterlimit="22.9256" d="M54.808,123.281
		c0,0-3.166-0.437-4.53-3.843c-0.813-2.031-0.31-3.336,0.055-5.786"/>
	<path fill="none" stroke="#2B2A29" stroke-width="0.5102" stroke-miterlimit="22.9256" d="M50.797,84.832
		c0,0-1.93-2.548-0.486-5.921c0.861-2.012,2.14-2.578,4.13-4.053"/>
</g>
</svg>
