<?xml version="1.0" encoding="utf-8"?>
<!-- Generator: Adobe Illustrator 16.0.0, SVG Export Plug-In . SVG Version: 6.00 Build 0)  -->
<!DOCTYPE svg PUBLIC "-//W3C//DTD SVG 1.0//EN" "http://www.w3.org/TR/2001/REC-SVG-20010904/DTD/svg10.dtd">
<svg version="1.0" id="Layer_1" xmlns="http://www.w3.org/2000/svg" xmlns:xlink="http://www.w3.org/1999/xlink" x="0px" y="0px"
	 width="198.43px" height="198.43px" viewBox="0 0 198.43 198.43" enable-background="new 0 0 198.43 198.43" xml:space="preserve">
<g>
	<polygon fill-rule="evenodd" clip-rule="evenodd" fill="#FFFFFF" points="75,57.203 123.48,57.203 147.72,99.189 123.48,141.173 
		75,141.173 50.76,99.189 	"/>
	<polygon fill="none" stroke="#2B2A29" stroke-width="0.7187" stroke-miterlimit="22.9256" points="75,57.203 123.48,57.203 
		147.72,99.189 123.48,141.173 75,141.173 50.76,99.189 	"/>
	<path fill-rule="evenodd" clip-rule="evenodd" fill="#FFFFFF" d="M53.923,104.753L53.923,104.753c-3.058,0-5.538-2.479-5.538-5.538
		s2.48-5.538,5.538-5.538h0.002h35.697L71.774,62.762l-0.001-0.001c-1.529-2.648-0.621-6.037,2.027-7.565
		c2.648-1.529,6.036-0.622,7.565,2.026l17.85,30.916l17.849-30.914l0.001-0.002c1.528-2.648,4.917-3.556,7.565-2.026
		c2.648,1.528,3.556,4.917,2.026,7.565h0.001l-17.85,30.916h35.697h0.001c3.059,0,5.539,2.479,5.539,5.538s-2.48,5.538-5.539,5.538
		h-35.698l17.85,30.916c1.528,2.649,0.621,6.036-2.027,7.565s-6.037,0.621-7.565-2.027l-0.001-0.001l-17.849-30.915l-17.85,30.916
		l0,0c-1.529,2.648-4.917,3.557-7.565,2.027s-3.557-4.917-2.027-7.565l0.001-0.001l17.849-30.915H53.923z"/>
	<path fill="none" stroke="#2B2A29" stroke-width="0.5102" stroke-miterlimit="22.9256" d="M53.923,104.753L53.923,104.753
		c-3.058,0-5.538-2.479-5.538-5.538s2.48-5.538,5.538-5.538h0.002h35.697L71.774,62.762l-0.001-0.001
		c-1.529-2.648-0.621-6.037,2.027-7.565c2.648-1.529,6.036-0.622,7.565,2.026l17.85,30.916l17.849-30.914l0.001-0.002
		c1.528-2.648,4.917-3.556,7.565-2.026c2.648,1.528,3.556,4.917,2.026,7.565h0.001l-17.85,30.916h35.697h0.001
		c3.059,0,5.539,2.479,5.539,5.538s-2.48,5.538-5.539,5.538h-35.698l17.85,30.916c1.528,2.649,0.621,6.036-2.027,7.565
		s-6.037,0.621-7.565-2.027l-0.001-0.001l-17.849-30.915l-17.85,30.916l0,0c-1.529,2.648-4.917,3.557-7.565,2.027
		s-3.557-4.917-2.027-7.565l0.001-0.001l17.849-30.915H53.923z"/>
	
		<line fill="none" stroke="#2B2A29" stroke-width="0.5102" stroke-miterlimit="22.9256" x1="89.622" y1="104.753" x2="108.808" y2="93.677"/>
	
		<line fill="none" stroke="#2B2A29" stroke-width="0.5102" stroke-miterlimit="22.9256" x1="99.215" y1="110.291" x2="99.215" y2="88.138"/>
	
		<line fill="none" stroke="#2B2A29" stroke-width="0.5102" stroke-miterlimit="22.9256" x1="89.622" y1="93.677" x2="108.808" y2="104.753"/>
	<path fill="none" stroke="#2B2A29" stroke-width="0.5102" stroke-miterlimit="22.9256" d="M58.016,93.677
		c-2.609,0-4.724,2.479-4.724,5.538s2.114,5.538,4.724,5.538"/>
	<path fill="none" stroke="#2B2A29" stroke-width="0.5102" stroke-miterlimit="22.9256" d="M66.176,93.677
		c-2.608,0-4.724,2.479-4.724,5.538s2.115,5.538,4.724,5.538"/>
	<path fill="none" stroke="#2B2A29" stroke-width="0.5102" stroke-miterlimit="22.9256" d="M77.258,93.677
		c-1.304,0-2.361,2.479-2.361,5.538s1.058,5.538,2.361,5.538"/>
	<path fill="none" stroke="#2B2A29" stroke-width="0.5102" stroke-miterlimit="22.9256" d="M89.669,93.677
		c-0.846,0-1.531,2.479-1.531,5.538s0.686,5.538,1.531,5.538"/>
	<path fill="none" stroke="#2B2A29" stroke-width="0.5102" stroke-miterlimit="22.9256" d="M83.323,60.794
		c-1.309-2.256-4.515-2.841-7.16-1.306c-2.646,1.534-3.729,4.607-2.421,6.864"/>
	<path fill="none" stroke="#2B2A29" stroke-width="0.5102" stroke-miterlimit="22.9256" d="M87.417,67.853
		c-1.309-2.256-4.515-2.841-7.16-1.307c-2.646,1.535-3.729,4.608-2.421,6.865"/>
	<path fill="none" stroke="#2B2A29" stroke-width="0.5102" stroke-miterlimit="22.9256" d="M92.979,77.44
		c-0.654-1.129-3.33-0.799-5.976,0.735c-2.646,1.535-4.26,3.694-3.605,4.822"/>
	<path fill="none" stroke="#2B2A29" stroke-width="0.5102" stroke-miterlimit="22.9256" d="M99.206,88.174
		c-0.424-0.731-2.913-0.08-5.559,1.455c-2.646,1.534-4.446,3.372-4.022,4.104"/>
	<path fill="none" stroke="#2B2A29" stroke-width="0.5102" stroke-miterlimit="22.9256" d="M124.657,66.333
		c1.308-2.257,0.224-5.33-2.423-6.864s-5.853-0.947-7.16,1.31"/>
	<path fill="none" stroke="#2B2A29" stroke-width="0.5102" stroke-miterlimit="22.9256" d="M120.566,73.393
		c1.308-2.257,0.223-5.33-2.424-6.863c-2.646-1.534-5.852-0.948-7.16,1.31"/>
	<path fill="none" stroke="#2B2A29" stroke-width="0.5102" stroke-miterlimit="22.9256" d="M115.008,82.982
		c0.653-1.129-0.961-3.287-3.607-4.821c-2.646-1.533-5.322-1.862-5.977-0.733"/>
	<path fill="none" stroke="#2B2A29" stroke-width="0.5102" stroke-miterlimit="22.9256" d="M108.784,93.718
		c0.424-0.73-1.378-2.567-4.024-4.101c-2.646-1.534-5.135-2.185-5.559-1.453"/>
	<path fill="none" stroke="#2B2A29" stroke-width="0.5102" stroke-miterlimit="22.9256" d="M140.41,104.76
		c2.608,0.001,4.725-2.477,4.727-5.536c0.002-3.059-2.111-5.539-4.72-5.541"/>
	<path fill="none" stroke="#2B2A29" stroke-width="0.5102" stroke-miterlimit="22.9256" d="M132.249,104.754
		c2.609,0.002,4.726-2.477,4.728-5.535s-2.111-5.54-4.72-5.541"/>
	<path fill="none" stroke="#2B2A29" stroke-width="0.5102" stroke-miterlimit="22.9256" d="M121.167,104.747
		c1.305,0.001,2.363-2.478,2.365-5.537c0.002-3.059-1.054-5.539-2.358-5.539"/>
	<path fill="none" stroke="#2B2A29" stroke-width="0.5102" stroke-miterlimit="22.9256" d="M108.757,104.74
		c0.845,0.001,1.532-2.479,1.534-5.537s-0.682-5.539-1.527-5.539"/>
	<path fill="none" stroke="#2B2A29" stroke-width="0.5102" stroke-miterlimit="22.9256" d="M114.996,137.661
		c1.302,2.26,4.507,2.854,7.156,1.326c2.65-1.527,3.743-4.597,2.44-6.857"/>
	<path fill="none" stroke="#2B2A29" stroke-width="0.5102" stroke-miterlimit="22.9256" d="M110.921,130.591
		c1.303,2.26,4.507,2.854,7.157,1.327s3.743-4.598,2.44-6.858"/>
	<path fill="none" stroke="#2B2A29" stroke-width="0.5102" stroke-miterlimit="22.9256" d="M105.388,120.989
		c0.651,1.131,3.327,0.809,5.978-0.719s4.271-3.682,3.619-4.812"/>
	<path fill="none" stroke="#2B2A29" stroke-width="0.5102" stroke-miterlimit="22.9256" d="M99.191,110.237
		c0.423,0.732,2.913,0.088,5.563-1.439c2.649-1.527,4.456-3.359,4.034-4.092"/>
	<path fill="none" stroke="#2B2A29" stroke-width="0.5102" stroke-miterlimit="22.9256" d="M73.843,132.132
		c-1.303,2.26-0.212,5.331,2.438,6.858c2.65,1.528,5.854,0.936,7.158-1.324"/>
	<path fill="none" stroke="#2B2A29" stroke-width="0.5102" stroke-miterlimit="22.9256" d="M77.92,125.064
		c-1.304,2.26-0.212,5.33,2.438,6.858c2.65,1.527,5.854,0.935,7.157-1.325"/>
	<path fill="none" stroke="#2B2A29" stroke-width="0.5102" stroke-miterlimit="22.9256" d="M83.456,115.463
		c-0.651,1.13,0.969,3.284,3.618,4.813s5.326,1.851,5.978,0.721"/>
	<path fill="none" stroke="#2B2A29" stroke-width="0.5102" stroke-miterlimit="22.9256" d="M89.656,104.712
		c-0.422,0.732,1.384,2.565,4.033,4.093c2.649,1.528,5.14,2.174,5.563,1.441"/>
</g>
</svg>
