<?xml version="1.0" encoding="utf-8"?>
<!-- Generator: Adobe Illustrator 16.0.0, SVG Export Plug-In . SVG Version: 6.00 Build 0)  -->
<!DOCTYPE svg PUBLIC "-//W3C//DTD SVG 1.1//EN" "http://www.w3.org/Graphics/SVG/1.1/DTD/svg11.dtd">
<svg version="1.1" id="Layer_1" xmlns="http://www.w3.org/2000/svg" xmlns:xlink="http://www.w3.org/1999/xlink" x="0px" y="0px"
	 width="198.43px" height="198.43px" viewBox="0 0 198.43 198.43" enable-background="new 0 0 198.43 198.43" xml:space="preserve">
<g>
	<path fill="none" stroke="#2B2A29" stroke-width="0.5669" stroke-miterlimit="22.9256" d="M99.215,58.199
		c0,0,12.917,0.221,21.751,8.168c8.795,7.912,13.106,21.44,8.554,34.141c-2.434,6.785-6.646,12.459-16.612,18.066
		c0,0-3.896-3.365-13.692-3.365s-13.692,3.365-13.692,3.365c-9.967-5.607-14.179-11.281-16.612-18.066
		c-4.553-12.701-0.241-26.229,8.553-34.141C86.298,58.42,99.215,58.199,99.215,58.199z"/>
	<polyline fill="none" stroke="#2B2A29" stroke-width="0.5669" stroke-miterlimit="22.9256" points="118.184,115.225 
		118.184,140.231 99.215,140.231 80.246,140.231 80.246,115.225 	"/>
	
		<line fill="none" stroke="#2B2A29" stroke-width="0.5669" stroke-miterlimit="22.9256" x1="99.215" y1="58.199" x2="99.215" y2="115.209"/>
	<path fill="none" stroke="#2B2A29" stroke-width="0.5669" stroke-miterlimit="22.9256" d="M91.116,116.131
		c-2.76-2.814-7.525-13.473-7.048-28.793c0.31-9.969,3.482-27.772,15.146-29.139"/>
	<path fill="none" stroke="#2B2A29" stroke-width="0.5669" stroke-miterlimit="22.9256" d="M107.314,116.131
		c2.76-2.814,7.525-13.473,7.048-28.793c-0.311-9.969-3.482-27.772-15.146-29.139"/>
	<line fill="none" stroke="#2B2A29" stroke-width="0.5669" stroke-miterlimit="22.9256" x1="70.787" y1="75" x2="127.865" y2="75"/>
	
		<line fill="none" stroke="#2B2A29" stroke-width="0.5669" stroke-miterlimit="22.9256" x1="69.992" y1="103.375" x2="128.469" y2="103.375"/>
</g>
</svg>
