<?xml version="1.0" encoding="utf-8"?>
<!-- Generator: Adobe Illustrator 16.0.0, SVG Export Plug-In . SVG Version: 6.00 Build 0)  -->
<!DOCTYPE svg PUBLIC "-//W3C//DTD SVG 1.1//EN" "http://www.w3.org/Graphics/SVG/1.1/DTD/svg11.dtd">
<svg version="1.1" id="Layer_1" xmlns="http://www.w3.org/2000/svg" xmlns:xlink="http://www.w3.org/1999/xlink" x="0px" y="0px"
	 width="198.43px" height="198.43px" viewBox="0 0 198.43 198.43" enable-background="new 0 0 198.43 198.43" xml:space="preserve">
<g>
	<path fill="none" stroke="#2B2A29" stroke-width="0.5669" stroke-miterlimit="22.9256" d="M80.235,118.084
		c-0.781-0.252-1.568-0.523-2.359-0.818c-11.722-4.371-23.729-14.674-23.729-28.217c0-13.544,12.336-22.616,24.059-26.988
		c10.771-4.018,21.01-3.868,21.01-3.868s10.239-0.149,21.01,3.868c11.723,4.372,24.059,13.444,24.059,26.988
		c0,13.543-12.006,23.846-23.729,28.217c-0.791,0.295-1.578,0.566-2.359,0.818c0,0-1.107-6.668-18.98,0
		C81.344,111.416,80.235,118.084,80.235,118.084z"/>
	
		<line fill="none" stroke="#2B2A29" stroke-width="0.5669" stroke-miterlimit="22.9256" x1="99.215" y1="58.192" x2="99.215" y2="118.084"/>
	<polyline fill="none" stroke="#2B2A29" stroke-width="0.5669" stroke-miterlimit="22.9256" points="118.196,118.084 
		118.196,140.24 80.235,140.24 80.235,118.084 	"/>
	
		<line fill="none" stroke="#2B2A29" stroke-width="0.5669" stroke-miterlimit="22.9256" x1="59.198" y1="75.009" x2="139.233" y2="75.009"/>
	
		<line fill="none" stroke="#2B2A29" stroke-width="0.5669" stroke-miterlimit="22.9256" x1="139.444" y1="103.383" x2="58.988" y2="103.383"/>
	<path fill="none" stroke="#2B2A29" stroke-width="0.5669" stroke-miterlimit="22.9256" d="M99.215,58.192
		c0,0,14.589,0.148,21.053,16.816c3.594,9.27,3.67,19.376,0.185,28.316c-1.669,4.281-4.156,8.297-7.465,11.824"/>
	<path fill="none" stroke="#2B2A29" stroke-width="0.5669" stroke-miterlimit="22.9256" d="M99.607,58.208
		c5.413,2.377,8.522,8.992,10.119,16.801c2.027,9.918,1.6,21.695,0.191,28.421c-0.92,4.395-2.311,8.693-4.146,12.584"/>
	<path fill="none" stroke="#2B2A29" stroke-width="0.5669" stroke-miterlimit="22.9256" d="M99.215,58.192
		c0,0,6.654-0.186,13.965,2.618c6.235,2.392,14.143,8.181,17.492,14.173c6.412,11.467,5.154,24.552-3.693,34.47
		c-2.885,3.234-6.607,5.373-9.498,7.377"/>
	<path fill="none" stroke="#2B2A29" stroke-width="0.5669" stroke-miterlimit="22.9256" d="M99.215,58.192
		c0,0-14.588,0.148-21.053,16.816c-3.594,9.27-3.67,19.376-0.184,28.316c1.669,4.281,4.156,8.297,7.465,11.824"/>
	<path fill="none" stroke="#2B2A29" stroke-width="0.5669" stroke-miterlimit="22.9256" d="M98.824,58.208
		c-5.412,2.377-8.523,8.992-10.119,16.801c-2.027,9.918-1.6,21.695-0.191,28.421c0.92,4.395,2.311,8.693,4.146,12.584"/>
	<path fill="none" stroke="#2B2A29" stroke-width="0.5669" stroke-miterlimit="22.9256" d="M99.215,58.192
		c0,0-6.654-0.186-13.965,2.618c-6.234,2.392-14.143,8.181-17.492,14.173c-6.411,11.467-5.153,24.552,3.693,34.47
		c2.886,3.234,6.607,5.373,9.498,7.377"/>
</g>
</svg>
