<?xml version="1.0" encoding="utf-8"?>
<!-- Generator: Adobe Illustrator 16.0.0, SVG Export Plug-In . SVG Version: 6.00 Build 0)  -->
<!DOCTYPE svg PUBLIC "-//W3C//DTD SVG 1.0//EN" "http://www.w3.org/TR/2001/REC-SVG-20010904/DTD/svg10.dtd">
<svg version="1.0" id="Layer_1" xmlns="http://www.w3.org/2000/svg" xmlns:xlink="http://www.w3.org/1999/xlink" x="0px" y="0px"
	 width="198.43px" height="198.43px" viewBox="0 0 198.43 198.43" enable-background="new 0 0 198.43 198.43" xml:space="preserve">
<g>
	<path fill-rule="evenodd" clip-rule="evenodd" fill="#FFFFFF" d="M123.72,42.564c1.258,0,2.276,1.02,2.276,2.276
		c0,1.255-1.015,2.273-2.269,2.277c0.954,3.119,4.599,6.978,5.477,10.012c0.384,1.326,0.373,2.763,0.364,3.54
		c-0.009,0.778,0,87.122,0,87.122c0,4.145-5.714,8.342-6.514,8.342H75.713c-0.8,0-6.852-4.197-6.852-8.342
		c0,0,0.009-86.344,0-87.122c-0.009-0.777-0.02-2.214,0.365-3.54c0.877-3.031,4.514-6.885,5.473-10.002
		c-1.219-0.044-2.193-1.046-2.193-2.275c0-1.258,1.02-2.277,2.276-2.277h48.709C123.567,42.568,123.643,42.564,123.72,42.564z
		 M99.215,42.297h-0.003"/>
	<path fill="none" stroke="#2B2A29" stroke-width="0.5102" stroke-miterlimit="22.9256" d="M123.72,42.564
		c1.258,0,2.276,1.02,2.276,2.276c0,1.255-1.015,2.273-2.269,2.277c0.954,3.119,4.599,6.978,5.477,10.012
		c0.384,1.326,0.373,2.763,0.364,3.54c-0.009,0.778,0,87.122,0,87.122c0,4.145-5.714,8.342-6.514,8.342H75.713
		c-0.8,0-6.852-4.197-6.852-8.342c0,0,0.009-86.344,0-87.122c-0.009-0.777-0.02-2.214,0.365-3.54
		c0.877-3.031,4.514-6.885,5.473-10.002c-1.219-0.044-2.193-1.046-2.193-2.275c0-1.258,1.02-2.277,2.276-2.277h48.709
		C123.567,42.568,123.643,42.564,123.72,42.564z M99.215,42.297h-0.003"/>
	
		<line fill="none" stroke="#2B2A29" stroke-width="0.5102" stroke-miterlimit="22.9256" x1="74.699" y1="47.127" x2="123.728" y2="47.127"/>
	
		<line fill="none" stroke="#2B2A29" stroke-width="0.5102" stroke-miterlimit="22.9256" x1="68.862" y1="147.791" x2="129.569" y2="147.791"/>
	
		<line fill="none" stroke="#2B2A29" stroke-width="0.5102" stroke-miterlimit="22.9256" x1="68.914" y1="58.885" x2="129.516" y2="58.885"/>
	<path fill="none" stroke="#2B2A29" stroke-width="0.5102" stroke-miterlimit="22.9256" d="M81.464,156.133L81.464,156.133
		c-0.673,0-5.8-4.197-5.8-8.342c0,0,0.008-86.344,0-87.122c-0.008-0.777-0.016-2.214,0.308-3.54c0.738-3.031,3.8-6.885,4.607-10.002
		c-1.025-0.044-1.847-1.046-1.847-2.275c0-1.258,0.858-2.277,1.917-2.277"/>
	<path fill="none" stroke="#2B2A29" stroke-width="0.5102" stroke-miterlimit="22.9256" d="M90.843,156.133L90.843,156.133
		c-0.236,0-1.925-4.197-1.925-8.342c0,0,0.003-86.344,0-87.122c-0.003-0.777-0.006-2.214,0.107-3.54
		c0.26-3.031,1.334-6.885,1.617-10.002c-0.36-0.044-0.648-1.046-0.648-2.275c0-1.258,0.302-2.277,0.673-2.277"/>
	<path fill="none" stroke="#2B2A29" stroke-width="0.5102" stroke-miterlimit="22.9256" d="M116.784,156.133L116.784,156.133
		c0.674,0,6.054-4.197,6.054-8.342c0,0-0.008-86.344,0-87.122c0.008-0.777,0.016-2.214-0.308-3.54
		c-0.738-3.031-3.801-6.885-4.608-10.002c1.026-0.044,1.848-1.046,1.848-2.275c0-1.258-0.858-2.277-1.918-2.277"/>
	<path fill="none" stroke="#2B2A29" stroke-width="0.5102" stroke-miterlimit="22.9256" d="M107.66,156.133L107.66,156.133
		c0.236,0,1.925-4.197,1.925-8.342c0,0-0.003-86.344,0-87.122c0.002-0.777,0.005-2.214-0.108-3.54
		c-0.259-3.031-1.334-6.885-1.617-10.002c0.36-0.044,0.648-1.046,0.648-2.275c0-1.258-0.302-2.277-0.673-2.277"/>
</g>
</svg>
