<?xml version="1.0"?>
<svg xmlns="http://www.w3.org/2000/svg" height="512px" viewBox="0 -66 501.145 501" width="512px" class=""><g><path d="m469.867188 140.363281c-17.25-10.785156-41.25-20.214843-71.25-27.398437v-40.398438c.035156-3.109375-1.753907-5.953125-4.570313-7.269531l-140.132813-64.492187c-2.113281-.976563-4.550781-.976563-6.664062 0l-140.074219 64.5c-2.8125 1.316406-4.597656 4.15625-4.558593 7.261718v40.652344c-29 7.1875-53.539063 16.535156-70.785157 27.171875-21.09375 13.019531-31.832031 27.730469-31.832031 43.738281 0 21.476563 19.785156 40.96875 57.089844 56.382813 14.789062 5.964843 30.007812 10.8125 45.527344 14.496093v43.558594c-.035157 3.109375 1.75 5.949219 4.570312 7.265625l140.128906 64.492188c2.109375.976562 4.542969.976562 6.65625 0l140.082032-64.5c2.8125-1.316407 4.597656-4.152344 4.5625-7.257813v-43.621094c58-14.390624 102.527343-38.25 102.527343-70.816406 0-20.003906-16.988281-34.84375-31.277343-43.765625zm-219.25-123.484375 121.085937 55.714844-121.085937 56.085938-121.085938-56.085938zm-51 276.617188v-63.066406l48.078124 31.535156zm-3.609376-84.570313c-2.457031-1.613281-5.605468-1.75-8.191406-.355469-2.589844 1.398438-4.203125 4.101563-4.199218 7.042969v36.550781c-21.839844-1.980468-43.546876-5.246093-65-9.777343v-157.300781l124 57.515624v96.886719zm-179.964843-24.796875c0-12.558594 13.199219-23.308594 24.230469-30.117187 15.117187-9.320313 36.34375-17.648438 62.34375-24.285157v108.886719c-57-14.589843-86.574219-36.164062-86.574219-54.484375zm102.574219 74.511719c21.464843 4.429687 43.167968 7.632813 65 9.59375v40.074219c-.003907 2.941406 1.609374 5.648437 4.199218 7.042968 2.585938 1.398438 5.734375 1.261719 8.191406-.351562l46.609376-30.570312v66.140624l-124-57.136718zm264 34.792969-124 57.136718v-76.632812l8.058593-5.285156c2.253907-1.480469 3.613281-3.996094 3.613281-6.691406 0-2.695313-1.359374-5.210938-3.613281-6.6875l-8.058593-5.285157v-107.382812l124-57.515625v157.214844c-25.257813 5.351562-50.851563 8.976562-76.601563 10.851562-4.296875.332031-7.558594 4.007812-7.375 8.3125.179687 4.304688 3.738281 7.695312 8.046875 7.664062.207031 0 .339844-.007812.550781-.023437 25.324219-1.898437 50.5-5.414063 75.378907-10.527344zm54.390624-67.28125c-12.515624 4.957031-25.339843 9.09375-38.390624 12.378906v-109.066406c54 13.660156 86.527343 34.289062 86.527343 54.671875 0 14.234375-17.515625 29.550781-48.136719 42.015625zm0 0" data-original="#000000" class="active-path" data-old_color="#ffffff" fill="#ffffff"/></g> </svg>
