<?xml version="1.0" encoding="utf-8"?>
<!-- Generator: Adobe Illustrator 19.0.0, SVG Export Plug-In . SVG Version: 6.00 Build 0)  -->
<svg version="1.1" id="Capa_1" xmlns="http://www.w3.org/2000/svg" xmlns:xlink="http://www.w3.org/1999/xlink" x="0px" y="0px"
	 viewBox="-285 408.6 24.3 24.3" style="enable-background:new -285 408.6 24.3 24.3;" xml:space="preserve">
<style type="text/css">
	.st0{fill:#FFFFFF;}
</style>
<g>
	<g>
		<path class="st0" d="M-274.7,408.6h-9.4c-0.5,0-0.9,0.4-0.9,0.9v9.4c0,0.5,0.4,0.9,0.9,0.9h9.4c0.5,0,0.9-0.4,0.9-0.9v-9.4
			C-273.8,409-274.2,408.6-274.7,408.6z"/>
		<path class="st0" d="M-261.6,408.6h-9.4c-0.5,0-0.9,0.4-0.9,0.9v9.4c0,0.5,0.4,0.9,0.9,0.9h9.4c0.5,0,0.9-0.4,0.9-0.9v-9.4
			C-260.7,409-261.1,408.6-261.6,408.6z M-262.5,417.9h-7.5v-7.5h7.5V417.9z"/>
		<path class="st0" d="M-274.7,421.7h-9.4c-0.5,0-0.9,0.4-0.9,0.9v9.4c0,0.5,0.4,0.9,0.9,0.9h9.4c0.5,0,0.9-0.4,0.9-0.9v-9.4
			C-273.8,422.1-274.2,421.7-274.7,421.7z M-280.6,431c0.2-0.3,0.3-0.6,0.3-0.9c0-1-0.8-1.9-1.9-1.9c-0.3,0-0.7,0.1-0.9,0.3v-2.4
			c0.3,0.2,0.6,0.3,0.9,0.3c1,0,1.9-0.8,1.9-1.9c0-0.3-0.1-0.7-0.3-0.9h2.4c-0.2,0.3-0.3,0.6-0.3,0.9c0,1,0.8,1.9,1.9,1.9
			c0.3,0,0.7-0.1,0.9-0.3v2.4c-0.3-0.2-0.6-0.3-0.9-0.3c-1,0-1.9,0.8-1.9,1.9c0,0.3,0.1,0.7,0.3,0.9H-280.6z"/>
		<path class="st0" d="M-261.6,421.7h-9.4c-0.5,0-0.9,0.4-0.9,0.9v4.7v4.7c0,0.5,0.4,0.9,0.9,0.9h4.7h4.7c0.5,0,0.9-0.4,0.9-0.9
			v-9.4C-260.7,422.1-261.1,421.7-261.6,421.7z M-270,427.7l4.1-4.1h2l-6.2,6.2V427.7z M-270,423.5h1.5l-1.5,1.5
			C-270,425-270,423.5-270,423.5z M-262.5,424.9v2l-4.1,4.1h-2L-262.5,424.9z M-262.5,431h-1.5l1.5-1.5V431z"/>
		<circle class="st0" cx="-279.4" cy="427.3" r="1.9"/>
	</g>
</g>
</svg>
