<?xml version="1.0" encoding="utf-8"?>
<!-- Generator: Adobe Illustrator 23.0.1, SVG Export Plug-In . SVG Version: 6.00 Build 0)  -->
<svg version="1.1" id="Layer_1" xmlns="http://www.w3.org/2000/svg" xmlns:xlink="http://www.w3.org/1999/xlink" x="0px" y="0px"
	 viewBox="0 0 38 38" style="enable-background:new 0 0 38 38;" xml:space="preserve">
<path id="XMLID_37_" fill="#333" d="M38,38H0V0h38V38z M3,35h32V3H3V35z"/>
<g id="XMLID_28_">
	<path id="XMLID_29_" fill="#333" d="M16.1,20.1h-5v3.2h5.6v2.5H8V12.2h8.4v2.5h-5.3v2.8h5V20.1z"/>
	<path id="XMLID_31_" fill="#333" d="M18.8,25.8V12.2h3.6l2.8,5c0.8,1.4,1.6,3.1,2.2,4.7h0.1c-0.2-1.8-0.3-3.6-0.3-5.7v-4H30v13.6h-3.2l-2.9-5.3
		c-0.8-1.5-1.7-3.2-2.4-4.8h-0.1c0.1,1.8,0.1,3.7,0.1,5.9v4.1L18.8,25.8L18.8,25.8z"/>
</g>
</svg>
