<?xml version="1.0" encoding="utf-8"?>
<!-- Generator: Adobe Illustrator 23.0.1, SVG Export Plug-In . SVG Version: 6.00 Build 0)  -->
<svg version="1.1" id="Layer_1" xmlns="http://www.w3.org/2000/svg" xmlns:xlink="http://www.w3.org/1999/xlink" x="0px" y="0px"
	 viewBox="0 0 512 512" style="enable-background:new 0 0 512 512;" xml:space="preserve">
<style type="text/css">
	.st0{fill:#FFFFFF;}
</style>
<g>
	<circle class="st0" cx="256" cy="128" r="21.3"/>
	<path class="st0" d="M453.3,0H58.7C26.3,0,0,26.3,0,58.7v394.7C0,485.7,26.3,512,58.7,512h394.7c32.4,0,58.7-26.3,58.7-58.7V58.7
		C512,26.3,485.7,0,453.3,0z M480,453.3c0,14.7-12,26.7-26.7,26.7H58.7C44,480,32,468,32,453.3V58.7C32,44,44,32,58.7,32h394.7
		C468,32,480,44,480,58.7V453.3z"/>
	<path class="st0" d="M304,362.7h-32V208c0-8.8-7.2-16-16-16h-37.3c-8.8,0-16,7.2-16,16s7.2,16,16,16H240v138.7h-32
		c-8.8,0-16,7.2-16,16s7.2,16,16,16h96c8.8,0,16-7.2,16-16S312.8,362.7,304,362.7z"/>
</g>
</svg>
