<?xml version="1.0" encoding="utf-8"?>
<!-- Generator: Adobe Illustrator 16.0.0, SVG Export Plug-In . SVG Version: 6.00 Build 0)  -->
<!DOCTYPE svg PUBLIC "-//W3C//DTD SVG 1.0//EN" "http://www.w3.org/TR/2001/REC-SVG-20010904/DTD/svg10.dtd">
<svg version="1.0" id="Layer_1" xmlns="http://www.w3.org/2000/svg" xmlns:xlink="http://www.w3.org/1999/xlink" x="0px" y="0px"
	 width="566.93px" height="566.93px" viewBox="0 0 566.93 566.93" enable-background="new 0 0 566.93 566.93" xml:space="preserve">
<g id="poziome">
	<g id="poziome_na_bialym_1_">
		<g id="grupa_4_">
			<path d="M285.247,315.05l-1.816,1.9c-0.832-0.732-1.791-1.099-2.89-1.079c-1.047,0-1.937,0.347-2.684,1.044
				c-0.75,0.681-1.119,1.57-1.119,2.668c0,2.041,1.553,3.661,3.625,3.661c0.996,0,1.903-0.263,2.687-0.783v-1.604h-2.509v-1.986
				h5.16v5.143c-1.533,1.239-3.311,1.847-5.338,1.847c-3.5,0.091-6.584-2.876-6.5-6.274c0-3.904,3.189-6.329,6.678-6.277
				C282.353,313.324,283.923,313.9,285.247,315.05z"/>
			<path d="M303.789,313.481h5.407c3.851,0,5.421,1.223,5.421,4.132c0,2.022-0.784,3.207-2.546,3.749l2.913,4.323h-3.211
				l-2.577-3.957l-0.662,0.018h-1.974v3.939h-2.771V313.481L303.789,313.481z M306.563,315.99v3.594h2.774
				c1.739,0,2.405-0.521,2.405-1.795c0-1.272-0.666-1.799-2.405-1.799H306.563L306.563,315.99z"/>
			<path d="M343.291,313.481v6.646c0,3.902-2.163,5.73-5.528,5.73c-3.472,0-5.528-1.916-5.528-5.73v-6.646h2.775v6.646
				c0,2.212,1.096,3.188,2.753,3.188c1.728,0,2.756-1.047,2.756-3.188v-6.646H343.291z"/>
			<path d="M361.393,313.481h5.233c3.644,0,5.285,1.377,5.285,4.324c0,2.911-1.694,4.253-5.268,4.253h-2.477v3.627h-2.775
				L361.393,313.481L361.393,313.481z M364.168,315.871v4.042h2.354c1.745,0,2.495-0.61,2.495-2.003
				c0-1.377-0.719-2.039-2.512-2.039H364.168z"/>
			<path d="M400.668,325.686h-3.311l-0.943-2.406h-5.109l-0.938,2.406h-3.313l4.972-12.204h3.644L400.668,325.686z M392.039,321.064
				h3.628l-1.811-4.497L392.039,321.064z"/>
		</g>
		<g id="tent_4_">
			<path d="M324.311,242.78c-5.933-6.309-13.882-9.462-23.854-9.462c-8.958,0-16.661,3.153-23.096,9.587
				c-6.44,6.438-9.592,14.138-9.592,23.228c0,9.089,3.284,16.787,9.72,23.222c6.561,6.439,14.387,9.596,23.598,9.596
				c10.479,0,19.563-3.663,27.013-10.857c0,0-1.271-1.629-1.677-2.188c-1.994-2.756-5.833-4.449-10.97-1.63
				c-1.802,0.989-0.871,0.488-3.401,1.625c-3.223,1.453-5.739,1.947-9.702,1.947c-5.173,0-9.719-1.648-13.629-4.926
				c-3.792-3.412-5.81-7.572-6.059-12.624h47.85h2.639v-4.163C333.147,256.794,330.241,248.967,324.311,242.78z M300.708,244.293
				c9.881,0,16.449,6.306,17.786,15.168h-35.39C284.65,250.849,291.979,244.293,300.708,244.293z"/>
			<path d="M405.092,266.132c0-9.338-2.615-17.165-8.542-23.353c-5.931-6.309-15.183-9.462-25.153-9.462
				c-9.974,0-19.223,3.153-25.158,9.462c-5.928,6.188-8.533,14.015-8.533,23.353v4.163h0.043v27.391h5.281
				c0,0,4.752,0.245,7.866-2.735c2.012-1.927,2.246-6.468,2.246-6.468v-23.431l0,0v-2.202h-0.047
				c0-10.603,6.945-15.894,18.048-15.894c0.088,0,0.164,0.01,0.254,0.01c0.08,0,0.168-0.01,0.257-0.01
				c11.103,0,18.045,5.291,18.045,15.894h-0.042v2.202v5.243v27.391h5.281c0,0,4.635,0.502,7.865-2.735
				c1.921-1.922,2.243-6.468,2.243-6.468v-18.188h0.046V266.132L405.092,266.132z"/>
			<path d="M236.053,234.579h-16.621v4.774v6.965h4.884h11.737v30.669c0,11.574,6.301,19.005,15.397,21.236V274.46v-18.516v-9.627
				h9.72c0,0,3.31-0.134,5.832-2.418c2.425-2.208,2.371-4.9,2.371-4.9v-4.421H251.45L236.053,234.579L236.053,234.579z"/>
			<path d="M438.477,234.579H455.1v4.774v6.965h-4.88h-11.743v30.669c0,11.574-6.302,19.005-15.398,21.236V274.46v-18.516v-9.627
				h-9.715c0,0-3.313-0.134-5.836-2.418c-2.424-2.208-2.368-4.9-2.368-4.9v-4.421h17.919L438.477,234.579L438.477,234.579z"/>
		</g>
		<path id="sygnet_4_" fill="#00AAF0" d="M163.024,208.829c16.876,0,31.726,8.698,40.303,21.856c0.28,0.424,0.546,0.857,0.812,1.292
			c0.65,1.061,0.828,1.303,0.687,1.394c-0.172,0.094-0.307-0.32-0.916-1.228c-0.3-0.448-0.623-0.884-0.947-1.314
			c-6.132-8.106-15.66-13.328-29.276-13.328c-9.012,0-18.917,3.466-25.569,9.791c-6.49,6.173-9.834,15.094-9.834,24.429
			c0,5.427,1.609,10.053,3.654,14.035c2.368,4.603,5.49,8.354,9.986,11.518c3.557,2.499,7.389,4.237,11.292,5.192
			c10.579,2.584,21.618-0.383,27.441-8.533c3.132-4.389,5.961-10.683,3.661-17.515c-5.452-16.188-30-13.038-28.687,5.621
			c0.043,0.607,0.128,0.729-0.037,0.738c-0.192,0.008-0.141-0.083-0.307-0.681c-4.287-15.723,7.258-25.013,18.678-25.013
			c11.848,0,23.542,8.545,25.858,19.945c0.333,1.614,0.509,3.301,0.509,5.012c0,2.257-0.303,4.446-0.866,6.532
			c-6.207,23.766-29.108,49.821-46.443,68.913c-21.9-23.524-48.082-54.021-48.082-80.575
			C114.942,230.355,136.466,208.829,163.024,208.829"/>
	</g>
</g>
</svg>
