<?xml version="1.0" encoding="utf-8"?>
<!-- Generator: Adobe Illustrator 23.0.1, SVG Export Plug-In . SVG Version: 6.00 Build 0)  -->
<svg version="1.1" id="Layer_1" xmlns="http://www.w3.org/2000/svg" xmlns:xlink="http://www.w3.org/1999/xlink" x="0px" y="0px"
	 viewBox="0 0 38 38" style="enable-background:new 0 0 38 38;" xml:space="preserve">
<path id="XMLID_36_" d="M38,38H0V0h38V38z M3,35h32V3H3V35z"/>
<g id="XMLID_9_">
	<path id="XMLID_11_" d="M8.9,12.4c1-0.2,2.3-0.3,4.2-0.3c1.9,0,3.3,0.4,4.2,1.1c0.9,0.7,1.5,1.8,1.5,3.2s-0.4,2.5-1.3,3.2
		c-1.1,1-2.6,1.4-4.4,1.4c-0.4,0-0.8,0-1.1-0.1v4.9H8.9L8.9,12.4L8.9,12.4z M12,18.6c0.3,0.1,0.6,0.1,1,0.1c1.6,0,2.6-0.8,2.6-2.2
		c0-1.3-0.9-2-2.4-2c-0.6,0-1.1,0.1-1.3,0.1L12,18.6L12,18.6z"/>
	<path id="XMLID_26_" d="M20.6,12.3h3.1v11h5.4v2.6h-8.5V12.3z"/>
</g>
</svg>
