<?xml version="1.0" encoding="utf-8"?>
<!-- Generator: Adobe Illustrator 23.0.1, SVG Export Plug-In . SVG Version: 6.00 Build 0)  -->
<svg version="1.1" id="Capa_1" xmlns="http://www.w3.org/2000/svg" xmlns:xlink="http://www.w3.org/1999/xlink" x="0px" y="0px"
	 viewBox="0 0 185 185" style="enable-background:new 0 0 185 185;" xml:space="preserve">
<g>
	<path d="M185,77.8c0-43.7-40.6-77.9-92.5-77.9S0,34.1,0,77.8c0,3,1.3,5.6,3,5.6s3-2.4,3-5.6c0-36.3,39.6-66.8,86.5-66.8
		S179,41.6,179,77.8c0,35.9-39,66.4-85.5,66.8l10.6-19.7c1.2-2.2,1.2-5.8,0-7.8c-1.2-2.2-3.1-2.2-4.2,0L82,150.2l17.9,33.1
		c0.6,1.1,1.3,1.7,2.1,1.7c0.8,0,1.5-0.6,2.1-1.7c1.2-2.2,1.2-5.8,0-7.8l-10.7-19.9C144.9,155.2,185,121.4,185,77.8z"/>
</g>
</svg>
