<?xml version="1.0" encoding="utf-8"?>
<!-- Generator: Adobe Illustrator 23.0.1, SVG Export Plug-In . SVG Version: 6.00 Build 0)  -->
<svg version="1.1" id="Capa_1" xmlns="http://www.w3.org/2000/svg" xmlns:xlink="http://www.w3.org/1999/xlink" x="0px" y="0px"
	 viewBox="0 0 185 185" style="enable-background:new 0 0 185 185;" xml:space="preserve">
<style type="text/css">
	.st0{fill:#FFFFFF;}
</style>
<g>
	<path class="st0" d="M185,84.6c0-23.5-40.6-41.9-92.5-41.9S0,61.1,0,84.6c0,1.6,1.3,3,3,3s3-1.3,3-3c0-19.5,39.6-35.9,86.5-35.9
		S179,65.1,179,84.6c0,19.3-39,35.7-85.5,35.9l10.6-10.6c1.2-1.2,1.2-3.1,0-4.2c-1.2-1.2-3.1-1.2-4.2,0l-17.9,17.8l17.9,17.8
		c0.6,0.6,1.3,0.9,2.1,0.9c0.8,0,1.5-0.3,2.1-0.9c1.2-1.2,1.2-3.1,0-4.2l-10.7-10.7C144.9,126.2,185,108,185,84.6z"/>
</g>
</svg>
