<?xml version="1.0" encoding="utf-8"?>
<!-- Generator: Adobe Illustrator 23.0.1, SVG Export Plug-In . SVG Version: 6.00 Build 0)  -->
<svg version="1.1" id="Layer_1" xmlns="http://www.w3.org/2000/svg" xmlns:xlink="http://www.w3.org/1999/xlink" x="0px" y="0px"
	 viewBox="0 0 38 38" style="enable-background:new 0 0 38 38;" xml:space="preserve">
<style type="text/css">
	.st0{fill:#FFFFFF;}
	.st1{fill:none;stroke:#000000;stroke-width:4;stroke-miterlimit:10;}
</style>
<path id="XMLID_37_" d="M38,38H0V0h38V38z M3,35h32V3H3V35z"/>
<g>
	<line class="st0" x1="30.6" y1="7.4" x2="7.4" y2="30.6"/>
	<g>
		<line class="st1" x1="24.5" y1="13.5" x2="13.5" y2="24.5"/>
		<g>
			<polygon points="19.1,10.5 30.6,7.4 27.5,18.9 			"/>
		</g>
		<g>
			<polygon points="10.5,19.1 7.4,30.6 18.9,27.5 			"/>
		</g>
	</g>
</g>
<path id="XMLID_7_" d="M-72.2,143.1h-38v-38h38V143.1z M-107.2,140.1h32v-32h-32V140.1z"/>
<g id="XMLID_1_">
	<path id="XMLID_3_" d="M-94.1,125.2h-5v3.2h5.6v2.5h-8.7v-13.6h8.4v2.5h-5.3v2.8h5C-94.1,122.6-94.1,125.2-94.1,125.2z"/>
	<path id="XMLID_2_" d="M-91.4,130.9v-13.6h3.6l2.8,5c0.8,1.4,1.6,3.1,2.2,4.7h0.1c-0.2-1.8-0.3-3.6-0.3-5.7v-4h2.8v13.6h-3.2
		l-2.9-5.3c-0.8-1.5-1.7-3.2-2.4-4.8h-0.1c0.1,1.8,0.1,3.7,0.1,5.9v4.1L-91.4,130.9L-91.4,130.9z"/>
</g>
<path id="XMLID_36_" d="M-124.5,142h-38v-38h38V142z M-159.5,139h32v-32h-32V139z"/>
<g id="XMLID_9_">
	<path id="XMLID_11_" d="M-153.6,116.5c1-0.2,2.3-0.3,4.2-0.3s3.3,0.4,4.2,1.1c0.9,0.7,1.5,1.8,1.5,3.2s-0.4,2.5-1.3,3.2
		c-1.1,1-2.6,1.4-4.4,1.4c-0.4,0-0.8,0-1.1-0.1v4.9h-3.1V116.5L-153.6,116.5z M-150.5,122.6c0.3,0.1,0.6,0.1,1,0.1
		c1.6,0,2.6-0.8,2.6-2.2c0-1.3-0.9-2-2.4-2c-0.6,0-1.1,0.1-1.3,0.1L-150.5,122.6L-150.5,122.6z"/>
	<path id="XMLID_26_" d="M-141.9,116.2h3.1v11h5.4v2.6h-8.5V116.2z"/>
</g>
<path id="XMLID_33_" d="M-46.5,260.8h-38v-38h38V260.8z M-81.5,257.8h32v-32h-32V257.8z"/>
<g id="XMLID_4_">
	<path id="XMLID_5_" d="M-63.1,233.6c0,1.3-1,2.3-2.4,2.3s-2.4-1-2.4-2.3s0.9-2.3,2.4-2.3S-63.1,232.3-63.1,233.6z M-67.8,252.3
		v-14.6h4.5v14.6C-63.3,252.3-67.8,252.3-67.8,252.3z"/>
</g>
<path id="XMLID_78_" d="M-108.5,214.8h-38v-38h38V214.8z M-143.5,211.8h32v-32h-32V211.8z"/>
<path id="XMLID_79_" d="M-127.5,207.5c-6.4,0-11.7-5.2-11.7-11.7s5.3-11.7,11.7-11.7s11.7,5.2,11.7,11.7S-121.1,207.5-127.5,207.5z
	 M-127.5,187.1c-4.8,0-8.7,3.9-8.7,8.7c0,4.8,3.9,8.7,8.7,8.7c4.8,0,8.7-3.9,8.7-8.7C-118.8,191-122.7,187.1-127.5,187.1z"/>
<rect id="XMLID_34_" x="-135" y="194.3" width="15" height="3"/>
<path id="XMLID_35_" d="M-38.5,197.3h-38v-38h38V197.3z M-73.5,194.3h32v-32h-32V194.3z"/>
<path id="XMLID_25_" d="M-57.5,190c-6.4,0-11.7-5.2-11.7-11.7s5.3-11.7,11.7-11.7s11.7,5.2,11.7,11.7S-51.1,190-57.5,190z
	 M-57.5,169.6c-4.8,0-8.7,3.9-8.7,8.7c0,4.8,3.9,8.7,8.7,8.7s8.7-3.9,8.7-8.7C-48.8,173.5-52.7,169.6-57.5,169.6z"/>
<polygon id="XMLID_46_" points="-56,176.8 -56,170.8 -59,170.8 -59,176.8 -65,176.8 -65,179.8 -59,179.8 -59,185.8 -56,185.8 
	-56,179.8 -50,179.8 -50,176.8 "/>
<path id="XMLID_17_" d="M25.3,252.3h-38v-38h38V252.3z M-9.7,249.3h32v-32h-32V249.3z"/>
<g id="XMLID_40_">
	<path id="XMLID_98_" d="M6,245c-6,0-11.4-5.2-11.4-11.7s5.3-11.7,11.8-11.7c3.7,0,7.1,1.7,9.4,4.6l-2.4,1.8
		c-1.7-2.2-4.2-3.4-6.9-3.4c-4.8,0-8.9,3.9-8.9,8.7c0,4.8,4.4,8.7,8.4,8.7V245z"/>
	<g id="XMLID_95_">
		<polygon id="XMLID_96_" points="18,224.4 16.7,233.3 9.6,227.7 		"/>
	</g>
</g>
<path id="XMLID_6_" d="M11,196.8h-38v-38h38V196.8z M-24,193.8H8v-32h-32V193.8z"/>
<g id="XMLID_10_">
	<path id="XMLID_97_" d="M-8.5,189.5v-3c5,0,8.9-3.9,8.9-8.7s-3.8-8.7-8.5-8.7c-2.7,0-5.2,1.3-6.9,3.4l-2.3-1.7
		c2.2-3,5.6-4.7,9.3-4.7c6.4,0,11.4,5.2,11.4,11.7C3.4,184.3-1.5,189.5-8.5,189.5z"/>
	<g id="XMLID_22_">
		<polygon id="XMLID_23_" points="-11.1,172.2 -18.2,177.8 -19.5,168.9 		"/>
	</g>
</g>
</svg>
