<?xml version="1.0" encoding="utf-8"?>
<!-- Generator: Adobe Illustrator 16.0.0, SVG Export Plug-In . SVG Version: 6.00 Build 0)  -->
<!DOCTYPE svg PUBLIC "-//W3C//DTD SVG 1.1//EN" "http://www.w3.org/Graphics/SVG/1.1/DTD/svg11.dtd">
<svg version="1.1" id="_x31__set_krzywe" xmlns="http://www.w3.org/2000/svg" xmlns:xlink="http://www.w3.org/1999/xlink" x="0px"
	 y="0px" width="226.771px" height="226.771px" viewBox="0 0 226.771 226.771" enable-background="new 0 0 226.771 226.771"
	 xml:space="preserve">
<g>
	<g>
		<path fill="#00ADEE" d="M178.807,109.736c-4.938-3.75-18.688-2.938-18.688-2.938h-17.625v0.013
			c-1.218,0.066-2.188,1.065-2.188,2.3c0,0.796,0.402,1.498,1.014,1.914c0.37,0.252,3.988,1.745,6.674,3.836
			c3.26,2.539,6.727,6.03,8.042,7.688c4.726,5.954,5.834,28.841,5.834,28.841h16.416l1.458-12.403l1.333-11.646
			C181.077,127.34,183.312,113.157,178.807,109.736z"/>
		<path fill="#00ADEE" d="M47.965,109.736c4.938-3.75,18.688-2.938,18.688-2.938h17.625v0.013c1.218,0.066,2.188,1.065,2.188,2.3
			c0,0.796-0.402,1.498-1.014,1.914c-0.37,0.252-3.988,1.745-6.674,3.836c-3.26,2.539-6.727,6.03-8.042,7.688
			c-4.726,5.954-5.834,28.841-5.834,28.841H48.486l-1.458-12.403l-1.333-11.646C45.695,127.34,43.46,113.157,47.965,109.736z"/>
	</g>
	<path fill="#231F20" d="M91.047,98.382c7.396-3.204,15.587-5,24.215-5c8.636,0,16.838,1.79,24.238,5h24.666
		c-11.468-13.944-29.938-22.999-50.779-22.999s-39.312,9.055-50.779,22.999H91.047z"/>
</g>
</svg>
