<?xml version="1.0" encoding="utf-8"?>
<!-- Generator: Adobe Illustrator 16.0.0, SVG Export Plug-In . SVG Version: 6.00 Build 0)  -->
<!DOCTYPE svg PUBLIC "-//W3C//DTD SVG 1.0//EN" "http://www.w3.org/TR/2001/REC-SVG-20010904/DTD/svg10.dtd">
<svg version="1.0" id="_x31__set_krzywe" xmlns="http://www.w3.org/2000/svg" xmlns:xlink="http://www.w3.org/1999/xlink" x="0px"
	 y="0px" width="226.771px" height="226.771px" viewBox="0 0 226.771 226.771" enable-background="new 0 0 226.771 226.771"
	 xml:space="preserve">
<g id="namiot_3_">
	<g>
		<g>
			<path fill="#00ADEE" d="M83.02,83.565l0.146,0.399l2.854,7.748c3.797-2.388,7.912-4.311,12.271-5.686v-8.864
				C92.868,78.611,87.745,80.786,83.02,83.565z"/>
			<path fill="#00ADEE" d="M66.825,112.759l-8.162-2.782c-2.314,4.787-4.037,9.913-5.055,15.291h-0.033l-0.837,6.781h1.522v0.021
				h43.98v-8.167H62.626C63.603,119.996,65.036,116.273,66.825,112.759z"/>
		</g>
		<g>
			<path fill="#00ADEE" d="M144.216,83.912l0.336-0.892c-4.922-2.777-10.258-4.906-15.9-6.254v8.794
				c4.564,1.284,8.881,3.163,12.861,5.547L144.216,83.912z"/>
			<path fill="#00ADEE" d="M174.915,125.268c-1.043-5.504-2.822-10.744-5.219-15.625l-0.268,0.083l-7.979,2.501
				c1.916,3.664,3.422,7.576,4.447,11.677h-36.262v8.167h43.98v-0.021h2.178l-0.838-6.781H174.915z"/>
		</g>
	</g>
	<rect x="109.429" y="96.664" fill="#00ADEE" width="8.417" height="35.281"/>
	<rect x="107.964" y="139.748" width="11.106" height="15.572"/>
	<rect x="166.878" y="139.748" width="10.104" height="15.572"/>
	<rect x="52.628" y="139.748" width="10.854" height="15.572"/>
	<rect x="106.795" y="75.246" width="13.353" height="12.741"/>
	<polygon points="60.479,101.612 73.148,105.931 79.76,99.32 75.187,86.904 	"/>
	<polygon points="154.261,105.57 166.886,101.612 152.177,86.904 147.648,98.958 	"/>
</g>
</svg>
