<?xml version="1.0" encoding="utf-8"?>
<!-- Generator: Adobe Illustrator 23.0.1, SVG Export Plug-In . SVG Version: 6.00 Build 0)  -->
<svg version="1.1" id="Capa_1" xmlns="http://www.w3.org/2000/svg" xmlns:xlink="http://www.w3.org/1999/xlink" x="0px" y="0px"
	 viewBox="0 0 24.3 24.3" style="enable-background:new 0 0 24.3 24.3;" xml:space="preserve">
<g>
	<path d="M23.6,22.6l-6.4-7.1c3-3.5,3-8.8-0.1-12.3c-1.7-1.9-4-3-6.5-3.1C8.1-0.1,5.7,0.7,3.8,2.4c-1.9,1.7-3,4-3.1,6.5
		s0.7,4.9,2.4,6.8c1.7,1.9,4,3,6.5,3.1c0.2,0,0.4,0,0.6,0c1.9,0,3.7-0.6,5.2-1.6l6.5,7.1L23.6,22.6z M9.6,16.2
		c-1.8-0.1-3.5-0.9-4.7-2.3C3.7,12.5,3.1,10.8,3.2,9c0.1-1.8,0.9-3.5,2.3-4.7c1.4-1.2,3.1-1.8,4.9-1.7c1.8,0.1,3.5,0.9,4.7,2.3
		c2.5,2.8,2.2,7.1-0.6,9.6C13.2,15.7,11.5,16.3,9.6,16.2z"/>
	<path d="M11.3,6H8.8v2.1H6.6v2.6h2.1v2.1h2.6v-2.1h2.1V8.1h-2.1V6z"/>
</g>
</svg>
