<?xml version="1.0" encoding="utf-8"?>
<!-- Generator: Adobe Illustrator 23.0.1, SVG Export Plug-In . SVG Version: 6.00 Build 0)  -->
<svg version="1.1" xmlns="http://www.w3.org/2000/svg" xmlns:xlink="http://www.w3.org/1999/xlink" x="0px" y="0px"
	 viewBox="0 0 25 25" style="enable-background:new 0 0 25 25;" xml:space="preserve">
<style type="text/css">
	.st0{fill:#FFFFFF;}
</style>
<g id="Layer_1">
</g>
<g id="Layer_1_copy">
	<g>
		<path class="st0" d="M12.5,0C5.6,0,0,5.6,0,12.5S5.6,25,12.5,25S25,19.4,25,12.5S19.4,0,12.5,0z M12.5,24C6.1,24,1,18.9,1,12.5
			C1,6.1,6.1,1,12.5,1S24,6.1,24,12.5C24,18.9,18.9,24,12.5,24z"/>
		<polygon class="st0" points="13,5 12,5 12,12 5,12 5,13 12,13 12,20 13,20 13,13 20,13 20,12 13,12 		"/>
	</g>
</g>
</svg>
