<?xml version="1.0" encoding="utf-8"?>
<!-- Generator: Adobe Illustrator 23.0.1, SVG Export Plug-In . SVG Version: 6.00 Build 0)  -->
<svg version="1.1" id="Layer_1" xmlns="http://www.w3.org/2000/svg" xmlns:xlink="http://www.w3.org/1999/xlink" x="0px" y="0px"
	 viewBox="0 0 38 38" style="enable-background:new 0 0 38 38;" xml:space="preserve">
<path id="XMLID_35_" fill="#333" d="M38,38H0V0h38V38z M3,35h32V3H3V35z"/>
<path id="XMLID_25_" fill="#333" d="M19,30.7c-6.4,0-11.7-5.2-11.7-11.7S12.6,7.3,19,7.3S30.7,12.5,30.7,19S25.4,30.7,19,30.7z M19,10.3
	c-4.8,0-8.7,3.9-8.7,8.7s3.9,8.7,8.7,8.7s8.7-3.9,8.7-8.7S23.8,10.3,19,10.3z"/>
<polygon id="XMLID_46_" fill="#333" points="20.5,17.5 20.5,11.5 17.5,11.5 17.5,17.5 11.5,17.5 11.5,20.5 17.5,20.5 17.5,26.5 20.5,26.5 
	20.5,20.5 26.5,20.5 26.5,17.5 "/>
</svg>
