<?xml version="1.0" encoding="utf-8"?>
<!-- Generator: Adobe Illustrator 23.0.1, SVG Export Plug-In . SVG Version: 6.00 Build 0)  -->
<svg version="1.1" id="Capa_1" xmlns="http://www.w3.org/2000/svg" xmlns:xlink="http://www.w3.org/1999/xlink" x="0px" y="0px"
	 viewBox="0 0 24.3 24.3" style="enable-background:new 0 0 24.3 24.3;" xml:space="preserve">
<g>
	<path d="M17.1,3.1C13.6-0.7,7.7-1.1,3.8,2.4c-1.9,1.7-3,4-3.1,6.5s0.7,4.9,2.4,6.8c1.7,1.9,4,3,6.5,3.1c0.2,0,0.4,0,0.6,0
		c1.9,0,3.7-0.6,5.2-1.6l6.5,7.1l1.9-1.7l-6.5-7.1C20.2,12,20.2,6.7,17.1,3.1z M9.6,16.2c-1.8-0.1-3.5-0.9-4.7-2.3
		C3.7,12.5,3.1,10.8,3.2,9s0.9-3.5,2.3-4.7C6.8,3.1,8.4,2.6,10,2.6c1.9,0,3.8,0.8,5.1,2.3c2.5,2.8,2.2,7.1-0.6,9.6
		C13.2,15.7,11.5,16.3,9.6,16.2z"/>
	<path d="M6.6,8.1h6.8v2.6H6.6V8.1z"/>
</g>
</svg>
