<?xml version="1.0" encoding="utf-8"?>
<!-- Generator: Adobe Illustrator 23.0.1, SVG Export Plug-In . SVG Version: 6.00 Build 0)  -->
<svg version="1.1" id="Layer_1" xmlns="http://www.w3.org/2000/svg" xmlns:xlink="http://www.w3.org/1999/xlink" x="0px" y="0px"
	 viewBox="0 0 201.62 63.73" style="enable-background:new 0 0 201.62 63.73;" xml:space="preserve">
<style type="text/css">
	.st0{fill:#1B75BC;}
</style>
<g>
	<path class="st0" d="M45.01,53.69c0,0.12,0,0.12-0.12,0.12c-0.25,0-0.74-0.12-1.49-0.37c3.47-4.46,8.56-12.15,8.56-17.48
		c0-4.84-2.11-6.82-7.56-8.68c1.86-1.98,3.6-5.83,3.6-8.8c0-9.05-8.56-13.76-17.61-13.76c-1.74,0-3.35,0.12-4.84,0.37l0.12-0.12
		C9.92,7.56,1.24,16.62,0.62,17.98c-0.12,0.25-0.25,0.5-0.37,0.87C0.12,19.47,0,20.21,0,20.96c0,1.98,0.62,4.34,3.97,6.7
		c0.62,0,3.1-5.7,14.63-12.03c0.36-0.14,0.73-0.29,1.11-0.45c-0.01,0.99-0.5,2.58-0.99,4.04l-0.87,2.6
		c-0.87,2.11-1.74,3.97-2.6,6.32c-2.36,0.37-6.82,0.87-6.82,2.23c0,1.61,2.6,6.7,3.47,6.7c-1.61,4.59-3.97,13.52-3.97,16.61
		c0,4.34,4.59,5.33,5.08,5.33c0-2.6,0.37-4.59,0.74-6.08c0.25-0.87,0.5-1.61,0.74-2.23c1.61-3.84,4.22-10.17,6.57-15.75
		c4.09-0.87,9.8-2.11,15.75-2.11c5.83,0,8.93,1.12,8.93,2.98c0,4.09-4.96,12.65-8.31,16.99c-1.86-0.12-3.6-0.25-5.95-0.25
		c-2.98,0-13.89,0.25-13.89,5.83c0,3.1,4.71,5.33,9.05,5.33c5.83,0,11.41-3.97,15.5-8.8c1.36,0.12,2.11,0.25,2.73,0.25
		c0.12,0,0.25,0,0.37-0.12s0.37-0.25,0.37-0.74c0-0.12-0.12-0.25-0.37-0.5C45.13,53.69,45.13,53.69,45.01,53.69z M40.3,26.41
		c-2.6-0.5-5.21-0.62-7.69-0.62c-2.6,0-5.08,0.12-7.56,0.5c1.61-3.35,1.61-3.6,1.61-5.08c0-4.02-6.08-5.64-6.89-6.05
		c3.43-1.44,7.8-3.62,13.46-3.62c3.97,0,9.92,1.86,9.92,7.44C43.15,21.57,41.91,24.43,40.3,26.41z M24.67,59.64
		c-2.6-0.74-3.97-1.24-3.97-1.49c0-1.86,10.54-3.47,15-3.47C32.11,58.15,28.52,59.64,24.67,59.64z"/>
	<path class="st0" d="M198.39,28.64c0.12-0.5,0.25-0.74,0.25-1.12c0-0.37,0-0.74-0.12-0.99c-0.98-3.17-5.67-4.9-5.81-5.31
		c-1.09,0.22-2.25,3.62-2.25,5.06c-2.18,3.74-5.67,10.44-8.57,15.51c-0.12,0.11-0.24,0.12-0.24,0.12c-0.23,0.52-0.47,1.02-0.71,1.51
		c-0.22,0.38-0.44,0.75-0.66,1.1c-2.36,0.37-3.6,2.48-3.6,4.96c0,0.13,0.01,0.27,0.02,0.4c-1.77,1.93-3.38,2.82-4.49,2.82
		c-1.49,0-1.74-1.36-1.74-3.22c0-6.7,5.7-13.64,8.31-19.22c0.62-0.62,0.87-2.36,0.87-2.85c0-2.85-5.33-6.2-5.7-6.2
		c-1.49,6.7-4.34,2.6-20.83,33.97c-0.12-0.37-0.12-0.87-0.12-1.49c0-9.8,9.55-18.23,9.55-23.81c0-2.6-4.59-6.32-5.7-6.32
		c-0.37,1.12-1.49,4.46-2.48,6.45c-0.57,1.25-5.94,10.68-6.81,20.66c-0.87,0.44-1.83,0.79-2.86,0.79c-0.62,0-1.12-0.12-1.49-0.25
		c2.6-3.35,5.83-9.05,5.83-15c0-0.87,0-1.49-0.12-2.36c0-2.36-1.98-7.94-7.19-7.94c-2.6,0-4.09,0.99-5.46,1.98
		c-1.36-2.11-1.74-2.23-2.11-2.23c-1.98,0.62-12.03,8.43-12.03,21.2c0,0.89,0.09,1.84,0.29,2.81c-1.2,0.81-2.77,1.78-4.5,1.78
		c-0.62,0-1.12-0.12-1.49-0.25c2.6-3.35,5.83-9.05,5.83-15c0-0.87,0-1.49-0.12-2.36c0-2.36-1.98-7.94-7.19-7.94
		c-2.6,0-4.09,0.99-5.46,1.98c-1.36-2.11-1.74-2.23-2.11-2.23c-1.98,0.62-12.03,8.43-12.03,21.2c0,1.11,0.15,2.32,0.46,3.53
		c-4.25,6.2-7.01,8-7.77,8c-0.37,0-0.37-0.62-0.37-0.99c0-8.43,14.26-39.18,17.85-46.87c0.62-1.36,1.36-2.98,1.36-4.46
		c0-3.35-6.45-6.08-7.07-6.08c0,0.99-0.5,2.6-0.99,4.09c-0.37,0.87-0.62,1.86-0.87,2.73C93.54,17.3,85.73,38.65,83.17,51.6
		c-2.27,4.07-4.6,6.06-6.17,6.06c-1.12,0-1.74-1.36-1.74-4.09c0-5.95,3.97-12.65,6.7-17.61h0.12c0.62-1.36,1.24-2.48,1.24-3.84
		c0-2.85-5.58-6.2-6.08-6.2c-0.12,0.37-0.12,0.99-0.5,1.49c-1.86-1.12-3.6-2.48-7.19-2.48c-10.42,0-18.1,11.78-18.1,21.2
		c0,3.84,1.61,12.28,9.18,12.28c5.46,0,7.56-2.98,8.93-4.59c1.12,5.08,4.09,6.94,6.57,6.94c2.44,0,4.55-1.7,6.28-4.01
		c-0.05,0.59-0.08,1.15-0.08,1.66c0,5.08,2.98,5.08,4.22,5.08c2.37,0,7.16-5.76,10.16-10.58c1.43,3.02,4.05,5.5,8.2,5.5
		c4.09,0,7.44-3.1,8.31-4.22c1.12,0.37,2.11,0.62,3.1,0.62c3.46,0,5.62-1.21,6.9-2.55c1.35,3.31,4.04,6.14,8.48,6.14
		c4.09,0,7.44-3.1,8.31-4.22c1.12,0.37,2.11,0.62,3.1,0.62c1.77,0,3.2-0.33,4.35-0.82c0.09,4.59,1.17,7.64,4.95,7.64
		c2.6,0,4.46-4.71,4.46-4.84c0.99-3.84,7.69-15.87,10.66-21.45c-1.61,4.46-2.73,7.56-2.73,12.03c0,2.73,0.62,4.96,1.74,6.57
		c1.49,1.98,3.22,2.48,4.71,2.48c2.43,0,4.54-1.5,6.26-3.51c1.43,3.15,4.8,6.12,10.23,6.12c6.57,0,13.89-4.34,13.89-12.77
		C200.75,38.69,198.52,32.61,198.39,28.64z M69.31,51.46c-1.98,2.48-4.46,4.09-7.32,4.09c-5.46,0-6.2-4.59-6.2-8.06
		c0-7.32,7.07-15.25,12.52-15.25c1.98,0,3.6,1.24,5.08,2.85C71.55,39.43,69.31,45.88,69.31,51.46z M105.27,55.3
		c-3.35-0.37-5.21-2.23-5.21-6.7s2.11-8.31,4.96-11.28c-0.12,0.99-0.25,2.11-0.25,3.1c0,4.46,0.99,9.67,5.33,12.28
		C107.75,54.81,106.14,55.3,105.27,55.3z M115.81,42.53c-0.62,2.98-1.61,5.21-2.98,7.07c-1.98-0.62-2.48-4.22-2.48-6.08
		c0-3.84,2.48-9.67,4.96-9.67c0.99,0.37,0.99,2.85,0.99,5.33C116.31,40.3,116.19,41.54,115.81,42.53z M132.06,55.3
		c-3.35-0.37-5.21-2.23-5.21-6.7s2.11-8.31,4.96-11.28c-0.12,0.99-0.25,2.11-0.25,3.1c0,4.46,0.99,9.67,5.33,12.28
		C134.54,54.81,132.92,55.3,132.06,55.3z M142.6,42.53c-0.62,2.98-1.61,5.21-2.98,7.07c-1.98-0.62-2.48-4.22-2.48-6.08
		c0-3.84,2.48-9.67,4.96-9.67c0.99,0.37,0.99,2.85,0.99,5.33C143.09,40.3,142.97,41.54,142.6,42.53z M186.86,54.43
		c-3.65,0-6.5-2.86-7.08-4.79c0.63-1.07,1.16-2.16,1.61-3.14c2.46-1.44,6.71-1.65,6.71-2.35c0-0.37-0.12-0.62-0.25-0.74
		c-0.12-0.12-0.12-0.12-0.25-0.12c0.12,0.12-1.99-0.1-5.19,0.68c0.08-0.22,0.15-0.42,0.21-0.61c2.42-3.39,5.53-7.77,8.2-11.61
		c0.99,4.22,4.34,11.66,4.34,15.5C195.17,51.71,190.71,54.43,186.86,54.43z"/>
	<path class="st0" d="M192.69,21.2c0,0.01,0.01,0.01,0.01,0.02c0.04-0.01,0.07-0.02,0.11-0.02H192.69z"/>
</g>
</svg>
