<?xml version="1.0" encoding="utf-8"?>
<!-- Generator: Adobe Illustrator 19.0.0, SVG Export Plug-In . SVG Version: 6.00 Build 0)  -->
<svg version="1.1" id="Layer_1" xmlns="http://www.w3.org/2000/svg" xmlns:xlink="http://www.w3.org/1999/xlink" x="0px" y="0px"
	 viewBox="0 0 38 38" style="enable-background:new 0 0 38 38;" xml:space="preserve">
<path id="XMLID_6_" d="M38,38H0V0h38V38z M3,35h32V3H3V35z"/>
<g id="XMLID_10_">
	<path id="XMLID_97_" d="M18.5,30.7v-3c5,0,8.9-3.9,8.9-8.7s-3.8-8.7-8.5-8.7c-2.7,0-5.2,1.3-6.9,3.4L9.7,12C11.9,9,15.3,7.3,19,7.3
		c6.4,0,11.4,5.2,11.4,11.7S25.5,30.7,18.5,30.7z"/>
	<g id="XMLID_22_">
		<polygon id="XMLID_23_" points="15.9,13.4 8.8,19 7.5,10.1 		"/>
	</g>
</g>
<path id="XMLID_17_" d="M89,38H51V0h38V38z M54,35h32V3H54V35z"/>
<g id="XMLID_40_">
	<path id="XMLID_98_" d="M69.5,30.7c-6,0-11.4-5.2-11.4-11.7S63.4,7.3,69.9,7.3c3.7,0,7.1,1.7,9.4,4.6l-2.4,1.8
		c-1.7-2.2-4.2-3.4-6.9-3.4c-4.8,0-8.9,3.9-8.9,8.7s4.4,8.7,8.4,8.7V30.7z"/>
	<g id="XMLID_95_">
		<polygon id="XMLID_96_" points="81.5,10.1 80.2,19 73.1,13.4 		"/>
	</g>
</g>
<path id="XMLID_35_" d="M136,38H98V0h38V38z M101,35h32V3h-32V35z"/>
<path id="XMLID_25_" d="M117,30.7c-6.4,0-11.7-5.2-11.7-11.7S110.6,7.3,117,7.3s11.7,5.2,11.7,11.7S123.4,30.7,117,30.7z M117,10.3
	c-4.8,0-8.7,3.9-8.7,8.7s3.9,8.7,8.7,8.7s8.7-3.9,8.7-8.7S121.8,10.3,117,10.3z"/>
<path id="XMLID_33_" d="M287.5,38h-38V0h38V38z M252.5,35h32V3h-32V35z"/>
<g id="XMLID_4_">
	<path id="XMLID_5_" d="M270.9,10.8c0,1.3-1,2.3-2.4,2.3c-1.4,0-2.4-1-2.4-2.3c0-1.3,0.9-2.3,2.4-2.3S270.9,9.5,270.9,10.8z
		 M266.2,29.5V14.9h4.5v14.6H266.2z"/>
</g>
<path id="XMLID_36_" d="M336.3,38h-38V0h38V38z M301.3,35h32V3h-32V35z"/>
<path id="XMLID_37_" d="M381.2,38h-38V0h38V38z M346.2,35h32V3h-32V35z"/>
<g id="XMLID_9_">
	<path id="XMLID_11_" d="M307.1,12.4c1-0.2,2.3-0.3,4.2-0.3c1.9,0,3.3,0.4,4.2,1.1c0.9,0.7,1.5,1.8,1.5,3.2s-0.4,2.5-1.3,3.2
		c-1.1,1-2.6,1.4-4.4,1.4c-0.4,0-0.8,0-1.1-0.1v4.9h-3.1V12.4z M310.2,18.6c0.3,0.1,0.6,0.1,1,0.1c1.6,0,2.6-0.8,2.6-2.2
		c0-1.3-0.9-2-2.4-2c-0.6,0-1.1,0.1-1.3,0.1V18.6z"/>
	<path id="XMLID_26_" d="M318.9,12.2h3.1v11h5.4v2.6h-8.5V12.2z"/>
</g>
<g id="XMLID_28_">
	<path id="XMLID_29_" d="M359.3,20.1h-5v3.2h5.6v2.5h-8.7V12.2h8.4v2.5h-5.3v2.8h5V20.1z"/>
	<path id="XMLID_31_" d="M362,25.8V12.2h3.6l2.8,5c0.8,1.4,1.6,3.1,2.2,4.7h0.1c-0.2-1.8-0.3-3.6-0.3-5.7v-4h2.8v13.6H370l-2.9-5.3
		c-0.8-1.5-1.7-3.2-2.4-4.8l-0.1,0c0.1,1.8,0.1,3.7,0.1,5.9v4.1H362z"/>
</g>
<polygon id="XMLID_46_" points="118.5,17.5 118.5,11.5 115.5,11.5 115.5,17.5 109.5,17.5 109.5,20.5 115.5,20.5 115.5,26.5 
	118.5,26.5 118.5,20.5 124.5,20.5 124.5,17.5 "/>
<path id="XMLID_78_" d="M182,38h-38V0h38V38z M147,35h32V3h-32V35z"/>
<path id="XMLID_79_" d="M163,30.7c-6.4,0-11.7-5.2-11.7-11.7S156.6,7.3,163,7.3s11.7,5.2,11.7,11.7S169.4,30.7,163,30.7z M163,10.3
	c-4.8,0-8.7,3.9-8.7,8.7s3.9,8.7,8.7,8.7s8.7-3.9,8.7-8.7S167.8,10.3,163,10.3z"/>
<rect id="XMLID_34_" x="155.5" y="17.5" width="15" height="3"/>
</svg>
