<?xml version="1.0" encoding="utf-8"?>
<!-- Generator: Adobe Illustrator 19.0.0, SVG Export Plug-In . SVG Version: 6.00 Build 0)  -->
<svg version="1.1" id="Layer_1" xmlns="http://www.w3.org/2000/svg" xmlns:xlink="http://www.w3.org/1999/xlink" x="0px" y="0px"
	 viewBox="0 0 38 38" style="enable-background:new 0 0 38 38;" xml:space="preserve">
<path id="XMLID_6_" d="M-13,38h-38V0h38V38z M-48,35h32V3h-32V35z"/>
<g id="XMLID_131_">
	<path id="XMLID_132_" d="M-32,7.3c-3.4,0-6.5,1.4-8.7,3.9l3,1.2c1.5-1.3,3.5-2.1,5.6-2.1c4.8,0,8.5,3.9,8.5,8.7s-3.9,8.7-8.9,8.7v3
		c7,0,11.9-5.2,11.9-11.7S-25.6,7.3-32,7.3z"/>
	<path id="XMLID_133_" d="M-39,13.8l-2.4-1.8c0.2-0.3,0.4-0.5,0.6-0.7l-2.8-1.1l1.3,8.9l7-5.6l-2.6-1C-38.2,12.8-38.6,13.3-39,13.8z
		"/>
	<path id="XMLID_134_" d="M-41.3,12l2.4,1.8c0.4-0.5,0.8-1,1.3-1.4l-3-1.2C-40.9,11.5-41.1,11.7-41.3,12z"/>
</g>
<path id="XMLID_17_" d="M38,38H0V0h38V38z M3,35h32V3H3V35z"/>
<g id="XMLID_10_">
	<path id="XMLID_22_" d="M18.9,7.3C12.4,7.3,7.1,12.6,7.1,19s5.4,11.7,11.4,11.7v-3c-4,0-8.4-3.9-8.4-8.7s4.1-8.7,8.9-8.7
		c2.1,0,4.1,0.8,5.6,2.1l3-1.2C25.4,8.8,22.2,7.3,18.9,7.3z"/>
	<path id="XMLID_97_" d="M27.6,11.3c0.2,0.2,0.4,0.5,0.6,0.7l-2.4,1.8c-0.4-0.5-0.8-0.9-1.3-1.3l-2.5,1l7,5.6l1.3-8.9L27.6,11.3z"/>
	<path id="XMLID_98_" d="M25.9,13.8l2.4-1.8c-0.2-0.3-0.4-0.5-0.6-0.7l-3,1.2C25.1,12.8,25.5,13.3,25.9,13.8z"/>
</g>
<path id="XMLID_35_" d="M85,38H47V0h38V38z M50,35h32V3H50V35z"/>
<path id="XMLID_25_" d="M66,30.7c-6.4,0-11.7-5.2-11.7-11.7S59.6,7.3,66,7.3S77.7,12.6,77.7,19S72.4,30.7,66,30.7z M66,10.3
	c-4.8,0-8.7,3.9-8.7,8.7s3.9,8.7,8.7,8.7s8.7-3.9,8.7-8.7S70.8,10.3,66,10.3z"/>
<path id="XMLID_33_" d="M236.5,38h-38V0h38V38z M201.5,35h32V3h-32V35z"/>
<g id="XMLID_4_">
	<path id="XMLID_5_" d="M219.9,10.8c0,1.3-1,2.3-2.4,2.3c-1.4,0-2.4-1-2.4-2.3c0-1.3,0.9-2.3,2.4-2.3
		C218.9,8.5,219.9,9.5,219.9,10.8z M215.2,29.5V14.9h4.5v14.6H215.2z"/>
</g>
<path id="XMLID_36_" d="M285.3,38h-38V0h38V38z M250.3,35h32V3h-32V35z"/>
<path id="XMLID_37_" d="M330.2,38h-38V0h38V38z M295.2,35h32V3h-32V35z"/>
<g id="XMLID_9_">
	<path id="XMLID_11_" d="M256.1,12.4c1-0.2,2.3-0.3,4.2-0.3c1.9,0,3.3,0.4,4.2,1.1c0.9,0.7,1.5,1.8,1.5,3.2s-0.4,2.5-1.3,3.2
		c-1.1,1-2.6,1.4-4.4,1.4c-0.4,0-0.8,0-1.1-0.1v4.9h-3.1V12.4z M259.2,18.6c0.3,0.1,0.6,0.1,1,0.1c1.6,0,2.6-0.8,2.6-2.2
		c0-1.3-0.9-2-2.4-2c-0.6,0-1.1,0.1-1.3,0.1V18.6z"/>
	<path id="XMLID_26_" d="M267.9,12.2h3.1v11h5.4v2.6h-8.5V12.2z"/>
</g>
<g id="XMLID_28_">
	<path id="XMLID_29_" d="M308.3,20.1h-5v3.2h5.6v2.5h-8.7V12.2h8.4v2.5h-5.3v2.8h5V20.1z"/>
	<path id="XMLID_31_" d="M311,25.8V12.2h3.6l2.8,5c0.8,1.4,1.6,3.1,2.2,4.7h0.1c-0.2-1.8-0.3-3.6-0.3-5.7v-4h2.8v13.6H319l-2.9-5.3
		c-0.8-1.5-1.7-3.2-2.4-4.8l-0.1,0c0.1,1.8,0.1,3.7,0.1,5.9v4.1H311z"/>
</g>
<polygon id="XMLID_46_" points="67.5,17.5 67.5,11.5 64.5,11.5 64.5,17.5 58.5,17.5 58.5,20.5 64.5,20.5 64.5,26.5 67.5,26.5 
	67.5,20.5 73.5,20.5 73.5,17.5 "/>
<path id="XMLID_78_" d="M131,38H93V0h38V38z M96,35h32V3H96V35z"/>
<path id="XMLID_79_" d="M112,30.7c-6.4,0-11.7-5.2-11.7-11.7S105.6,7.3,112,7.3s11.7,5.2,11.7,11.7S118.4,30.7,112,30.7z M112,10.3
	c-4.8,0-8.7,3.9-8.7,8.7s3.9,8.7,8.7,8.7s8.7-3.9,8.7-8.7S116.8,10.3,112,10.3z"/>
<rect id="XMLID_34_" x="104.5" y="17.5" width="15" height="3"/>
</svg>
