<?xml version="1.0" encoding="utf-8"?>
<!-- Generator: Adobe Illustrator 19.0.0, SVG Export Plug-In . SVG Version: 6.00 Build 0)  -->
<svg version="1.1" id="Layer_1" xmlns="http://www.w3.org/2000/svg" xmlns:xlink="http://www.w3.org/1999/xlink" x="0px" y="0px"
	 viewBox="0 0 38 38" style="enable-background:new 0 0 38 38;" xml:space="preserve">
<path id="XMLID_6_" d="M-60,38h-38V0h38V38z M-95,35h32V3h-32V35z"/>
<g id="XMLID_131_">
	<path id="XMLID_132_" d="M-79,7.3c-3.4,0-6.5,1.4-8.7,3.9l3,1.2c1.5-1.3,3.5-2.1,5.6-2.1c4.8,0,8.5,3.9,8.5,8.7s-3.9,8.7-8.9,8.7v3
		c7,0,11.9-5.2,11.9-11.7S-72.6,7.3-79,7.3z"/>
	<path id="XMLID_133_" d="M-86,13.8l-2.4-1.8c0.2-0.3,0.4-0.5,0.6-0.7l-2.8-1.1l1.3,8.9l7-5.6l-2.6-1C-85.2,12.8-85.6,13.3-86,13.8z
		"/>
	<path id="XMLID_134_" d="M-88.3,12l2.4,1.8c0.4-0.5,0.8-1,1.3-1.4l-3-1.2C-87.9,11.5-88.1,11.7-88.3,12z"/>
</g>
<path id="XMLID_17_" d="M-9,38h-38V0h38V38z M-44,35h32V3h-32V35z"/>
<g id="XMLID_10_">
	<path id="XMLID_22_" d="M-28.1,7.3c-6.4,0-11.8,5.2-11.8,11.7s5.4,11.7,11.4,11.7v-3c-4,0-8.4-3.9-8.4-8.7s4.1-8.7,8.9-8.7
		c2.1,0,4.1,0.8,5.6,2.1l3-1.2C-21.6,8.8-24.8,7.3-28.1,7.3z"/>
	<path id="XMLID_97_" d="M-19.4,11.3c0.2,0.2,0.4,0.5,0.6,0.7l-2.4,1.8c-0.4-0.5-0.8-0.9-1.3-1.3l-2.5,1l7,5.6l1.3-8.9L-19.4,11.3z"
		/>
	<path id="XMLID_98_" d="M-21.1,13.8l2.4-1.8c-0.2-0.3-0.4-0.5-0.6-0.7l-3,1.2C-21.9,12.8-21.5,13.3-21.1,13.8z"/>
</g>
<path id="XMLID_35_" d="M38,38H0V0h38V38z M3,35h32V3H3V35z"/>
<path id="XMLID_25_" d="M19,30.7c-6.4,0-11.7-5.2-11.7-11.7S12.6,7.3,19,7.3S30.7,12.6,30.7,19S25.4,30.7,19,30.7z M19,10.3
	c-4.8,0-8.7,3.9-8.7,8.7s3.9,8.7,8.7,8.7s8.7-3.9,8.7-8.7S23.8,10.3,19,10.3z"/>
<path id="XMLID_33_" d="M189.5,38h-38V0h38V38z M154.5,35h32V3h-32V35z"/>
<g id="XMLID_4_">
	<path id="XMLID_5_" d="M172.9,10.8c0,1.3-1,2.3-2.4,2.3c-1.4,0-2.4-1-2.4-2.3c0-1.3,0.9-2.3,2.4-2.3
		C171.9,8.5,172.9,9.5,172.9,10.8z M168.2,29.5V14.9h4.5v14.6H168.2z"/>
</g>
<path id="XMLID_36_" d="M238.3,38h-38V0h38V38z M203.3,35h32V3h-32V35z"/>
<path id="XMLID_37_" d="M283.2,38h-38V0h38V38z M248.2,35h32V3h-32V35z"/>
<g id="XMLID_9_">
	<path id="XMLID_11_" d="M209.1,12.4c1-0.2,2.3-0.3,4.2-0.3c1.9,0,3.3,0.4,4.2,1.1c0.9,0.7,1.5,1.8,1.5,3.2s-0.4,2.5-1.3,3.2
		c-1.1,1-2.6,1.4-4.4,1.4c-0.4,0-0.8,0-1.1-0.1v4.9h-3.1V12.4z M212.2,18.6c0.3,0.1,0.6,0.1,1,0.1c1.6,0,2.6-0.8,2.6-2.2
		c0-1.3-0.9-2-2.4-2c-0.6,0-1.1,0.1-1.3,0.1V18.6z"/>
	<path id="XMLID_26_" d="M220.9,12.2h3.1v11h5.4v2.6h-8.5V12.2z"/>
</g>
<g id="XMLID_28_">
	<path id="XMLID_29_" d="M261.3,20.1h-5v3.2h5.6v2.5h-8.7V12.2h8.4v2.5h-5.3v2.8h5V20.1z"/>
	<path id="XMLID_31_" d="M264,25.8V12.2h3.6l2.8,5c0.8,1.4,1.6,3.1,2.2,4.7h0.1c-0.2-1.8-0.3-3.6-0.3-5.7v-4h2.8v13.6H272l-2.9-5.3
		c-0.8-1.5-1.7-3.2-2.4-4.8l-0.1,0c0.1,1.8,0.1,3.7,0.1,5.9v4.1H264z"/>
</g>
<polygon id="XMLID_46_" points="20.5,17.5 20.5,11.5 17.5,11.5 17.5,17.5 11.5,17.5 11.5,20.5 17.5,20.5 17.5,26.5 20.5,26.5 
	20.5,20.5 26.5,20.5 26.5,17.5 "/>
<path id="XMLID_78_" d="M84,38H46V0h38V38z M49,35h32V3H49V35z"/>
<path id="XMLID_79_" d="M65,30.7c-6.4,0-11.7-5.2-11.7-11.7S58.6,7.3,65,7.3S76.7,12.6,76.7,19S71.4,30.7,65,30.7z M65,10.3
	c-4.8,0-8.7,3.9-8.7,8.7s3.9,8.7,8.7,8.7s8.7-3.9,8.7-8.7S69.8,10.3,65,10.3z"/>
<rect id="XMLID_34_" x="57.5" y="17.5" width="15" height="3"/>
</svg>
